<?xml version="1.0" encoding="UTF-8" standalone="no"?>
<!-- Created with Inkscape (http://www.inkscape.org/) -->

<svg
   xmlns:dc="http://purl.org/dc/elements/1.1/"
   xmlns:cc="http://creativecommons.org/ns#"
   xmlns:rdf="http://www.w3.org/1999/02/22-rdf-syntax-ns#"
   xmlns:svg="http://www.w3.org/2000/svg"
   xmlns="http://www.w3.org/2000/svg"
   xmlns:sodipodi="http://sodipodi.sourceforge.net/DTD/sodipodi-0.dtd"
   xmlns:inkscape="http://www.inkscape.org/namespaces/inkscape"
   width="425.40894mm"
   height="670.19971mm"
   viewBox="0 0 425.40894 670.19971"
   version="1.1"
   id="svg8"
   inkscape:version="0.92.1 r15371"
   sodipodi:docname="mussum.svg">
  <defs
     id="defs2" />
  <sodipodi:namedview
     id="base"
     pagecolor="#ffffff"
     bordercolor="#666666"
     borderopacity="1.0"
     inkscape:pageopacity="0.0"
     inkscape:pageshadow="2"
     inkscape:zoom="0.35"
     inkscape:cx="366.86442"
     inkscape:cy="1346.5307"
     inkscape:document-units="mm"
     inkscape:current-layer="layer1"
     showgrid="false"
     fit-margin-top="0"
     fit-margin-left="0"
     fit-margin-right="0"
     fit-margin-bottom="0"
     inkscape:window-width="1920"
     inkscape:window-height="1018"
     inkscape:window-x="-8"
     inkscape:window-y="-8"
     inkscape:window-maximized="1" />
  <metadata
     id="metadata5">
    <rdf:RDF>
      <cc:Work
         rdf:about="">
        <dc:format>image/svg+xml</dc:format>
        <dc:type
           rdf:resource="http://purl.org/dc/dcmitype/StillImage" />
        <dc:title></dc:title>
      </cc:Work>
    </rdf:RDF>
  </metadata>
  <g
     inkscape:label="Camada 1"
     inkscape:groupmode="layer"
     id="layer1"
     transform="translate(87.994782,165.09681)">
    <path
       style="fill:#000000;stroke-width:0.35277778"
       d="m 129.14187,504.89219 c -4.90552,-1.14617 -11.74279,-4.01881 -13.59765,-5.71295 -0.65993,-0.60276 -1.3353,-1.09591 -1.50083,-1.09591 -0.87068,0 -5.6449,-4.29161 -14.182082,-12.74843 -9.61348,-9.52299 -13.55094,-13.26593 -14.57551,-13.85531 -0.30766,-0.17699 -0.91129,-0.74003 -1.34139,-1.25117 -0.4301,-0.51113 -1.74756,-1.63247 -2.92769,-2.49188 -1.18013,-0.8594 -2.14569,-1.6843 -2.14569,-1.83314 0,-0.1488 -1.15094,-1.1352 -2.55764,-2.19194 -1.4067,-1.05675 -2.95451,-2.35335 -3.43958,-2.88132 -0.48507,-0.52796 -1.34931,-1.2452 -1.92054,-1.59381 -0.57122,-0.34862 -1.76185,-1.26266 -2.64583,-2.03126 -1.74793,-1.51973 -4.60995,-3.76552 -9.01557,-7.07436 -1.55223,-1.16579 -3.69535,-2.83796 -4.7625,-3.71595 -1.06716,-0.87796 -2.65466,-2.05123 -3.52778,-2.6072 -0.87313,-0.55602 -1.97236,-1.43016 -2.44275,-1.94257 -0.47038,-0.51241 -0.98587,-0.93165 -1.14554,-0.93165 -0.15966,0 -1.25965,-0.7136 -2.44441,-1.58578 -1.18478,-0.87217 -2.25862,-1.52121 -2.38632,-1.44229 -0.23013,0.14224 -38.2167999,-54.19926 -39.9115399,-57.09507 -1.14593,-1.9581 -3.24413,-4.78798 -3.55,-4.78798 -0.38082,0 -4.84958,-9.16319 -5.43945,-11.15359 -0.43215,-1.45821 -0.81942,-1.99327 -2.01579,-2.78501 -0.81448,-0.53897 -1.64806,-1.11732 -1.8524001,-1.28513 -0.20434,-0.16785 -1.48278,-1.09227 -2.84097,-2.05426 -3.8614,-2.73502 -10.08016,-8.57959 -15.44132,-14.51229 -3.07453,-3.4023 -8.68945,-10.54682 -9.46414,-12.04235 -0.3769,-0.72761 -0.8266,-1.32292 -0.99934,-1.32292 -0.17274,0 -1.23439,-1.45856 -2.35923,-3.24125 -1.12483,-1.78269 -2.32965,-3.48485 -2.67737,-3.78256 -0.34772,-0.29774 -0.63272,-0.70449 -0.63333,-0.90388 -7.1e-4,-0.19943 -0.63512,-1.31509 -1.40999,-2.47925 -0.77488,-1.16417 -1.409375,-2.26674 -1.409993,-2.45015 -7.05e-4,-0.18341 -0.384506,-0.73904 -0.853091,-1.23472 -0.468584,-0.49569 -1.500709,-2.13957 -2.293613,-3.65309 -0.792899,-1.51352 -1.995977,-3.6184 -2.673502,-4.67755 -0.677525,-1.05914 -1.884786,-3.23395 -2.682802,-4.83288 -0.798017,-1.59893 -1.720397,-3.22467 -2.049734,-3.61273 -0.329336,-0.38805 -1.29518,-2.21368 -2.146319,-4.05694 -0.851139,-1.84326 -1.949471,-3.98639 -2.440738,-4.7625 -0.491266,-0.77611 -1.653702,-3.07799 -2.583191,-5.11528 -0.929489,-2.03729 -1.84949,-3.94229 -2.044447,-4.23333 -0.508526,-0.75914 -2.368581,-4.70517 -3.566835,-7.56691 -0.564598,-1.34838 -1.234682,-2.69776 -1.489076,-2.99861 -0.254394,-0.30085 -1.301923,-2.53136 -2.327842,-4.9567 -1.025919,-2.42535 -2.234995,-5.04592 -2.686835,-5.82348 -0.451841,-0.77756 -1.393397,-2.84131 -2.092349,-4.58611 -0.698952,-1.74481 -1.816546,-4.25433 -2.483544,-5.57675 -2.166158,-4.29468 -4.184589,-9.88952 -5.114309,-14.17616 -0.39558,-1.82386 -0.39652,-10.16438 -10e-4,-11.99445 1.1168,-5.17218 3.377485,-11.2686 4.753549,-12.81902 l 0.731859,-0.82462 0.193712,4.17601 c 0.207749,4.47858 0.690818,5.99214 2.235456,7.00426 0.59953,0.39281 1.062998,0.45212 1.685079,0.21558 0.836079,-0.31785 0.879212,-0.24797 1.68138,2.72468 1.793639,6.64675 2.89412,10.31145 3.376793,11.24493 0.27818,0.53799 1.004406,2.32756 1.613834,3.97679 1.25456,3.3951 2.08035,5.10639 3.025859,6.27056 0.358477,0.44139 1.431795,1.87014 2.385152,3.175 1.761056,2.41039 5.211742,5.05082 7.968014,6.09709 0.679097,0.25778 1.314097,0.58089 1.411111,0.71805 0.746052,1.05466 4.237051,-1.66967 5.914055,-4.61525 0.498277,-0.87521 1.189048,-1.91047 1.535049,-2.30057 0.345997,-0.39011 1.359563,-2.45386 2.252368,-4.58612 0.8928,-2.13225 2.00996,-4.67056 2.48258,-5.6407 0.47261,-0.97014 1.41974,-3.31198 2.10473,-5.20407 1.4755,-4.07571 2.31608,-5.90843 2.70989,-5.90843 0.15809,0 0.28774,-0.19844 0.28811,-0.44097 10e-4,-0.63116 3.50404,-6.38316 4.0928,-6.72031 0.61177,-0.35035 0.63871,-1.37107 0.0517,-1.95778 -0.72759,-0.72714 -0.60537,-11.17448 0.14919,-12.75316 0.32458,-0.6791 0.70414,-1.69185 0.84346,-2.25055 0.13931,-0.55869 0.91809,-1.70963 1.73061,-2.55764 2.00639,-2.09398 3.86341,-2.02392 2.24663,0.0848 -0.51085,0.66625 -1.03024,5.85388 -0.79081,7.89841 0.309,2.63856 1.87344,6.26515 3.63228,8.42017 0.91172,1.11707 0.98374,1.13781 4.62718,1.33205 3.68035,0.19618 8.65714,-0.47515 9.14478,-1.23363 0.11039,-0.17169 1.0243,-0.72757 2.03092,-1.23525 2.0416001,-1.02969 3.0919201,-2.26137 4.4810801,-5.25487 0.51773,-1.11566 1.07755,-2.02847 1.24405,-2.02847 0.16651,0 0.99529,0.87404 1.84175,1.94236 0.84646,1.06828 2.37246,2.854 3.3911,3.96829 1.01865,1.11428 1.85209,2.1452 1.85209,2.29097 0,0.14577 1.57065,1.81286 3.49034,3.70463 6.3510599,6.25866 10.1858599,8.28893 15.7360499,8.33113 2.53937,0.0194 3.50593,-0.12799 4.82804,-0.73576 1.82745,-0.84007 6.38077,-4.3331 8.58537,-6.58618 3.49252,-3.5693 7.05914,-6.30051 10.4494,-8.00181 4.03118,-2.02294 7.65614,-2.97014 16.70663,-4.36542 5.80922,-0.89559 10.36417,-1.85917 16.22778,-3.43291 2.78933,-0.74863 6.50206,-2.20073 6.86718,-2.68584 0.10361,-0.13765 0.60413,-0.48842 1.11227,-0.77946 0.50814,-0.29104 1.74038,-1.26954 2.73831,-2.17442 2.51164,-2.27746 3.85943,-5.23003 4.17486,-9.14583 l 0.23903,-2.96725 0.42337,1.85857 c 1.18854,5.21762 1.25834,12.5742 0.16551,17.44451 -0.80182,3.57343 -3.06623,8.48173 -4.09512,8.87656 -0.2821,0.10827 -0.51291,0.44055 -0.51291,0.73843 0,0.83887 -5.53483,6.10867 -8.29028,7.89334 -1.35819,0.87968 -2.62819,1.78498 -2.82222,2.01178 -0.19403,0.2268 -2.09903,1.33385 -4.23333,2.46013 -2.13431,1.12625 -3.95994,2.16179 -4.05695,2.30114 -0.097,0.13938 -1.68451,1.03935 -3.52778,1.99997 -3.13531,1.63396 -8.26439,4.79679 -11.43853,7.05354 -0.7614,0.54134 -2.38893,1.61925 -3.61674,2.39536 -1.22781,0.77611 -3.22704,2.14757 -4.44275,3.04765 -1.21571,0.90011 -3.08068,2.14961 -4.14437,2.77664 -1.0637,0.62706 -2.41025,1.5342 -2.99233,2.01588 -0.58208,0.48168 -2.40771,1.64476 -4.05694,2.58459 -1.64924,0.93984 -3.21924,1.90292 -3.48889,2.14016 -1.07539,0.94622 -11.70851,5.92695 -14.85556,6.95854 -9.3763799,3.07365 -9.9771799,3.19532 -15.9400399,3.22813 -3.29337,0.018 -6.24813,0.21594 -7.29953,0.48867 -1.92565,0.4995 -4.7272901,2.419 -5.2874101,3.62257 -0.3141,0.6749 -0.23037,0.77992 0.76992,0.9658 0.61729,0.11469 3.9798401,0.31136 7.4723401,0.43702 6.14336,0.22109 16.7291499,-0.42556 21.3430499,-1.30373 0.87313,-0.16619 3.88696,-0.70181 6.69741,-1.19027 8.61351,-1.49708 16.57095,-3.16551 17.82065,-3.73644 0.38806,-0.17731 4.67431,-1.27903 9.525,-2.44828 4.8507,-1.16925 9.13695,-2.27327 9.525,-2.45336 1.16611,-0.54123 2.8445,-0.97709 10.23056,-2.65695 3.88055,-0.88257 7.37305,-1.75542 7.76111,-1.93967 1.84748,-0.87719 15.3348,-3.19546 23.636112,-4.06277 2.91042,-0.30406 6.24417,-0.69469 7.40833,-0.86804 2.57093,-0.3828 12.07533,-0.39279 13.8728,-0.0145 0.71316,0.15007 2.41965,0.37553 3.79221,0.50102 l 2.49556,0.22814 0.57549,-2.06992 c 0.31652,-1.13845 1.23712,-3.15899 2.04578,-4.49005 1.87485,-3.08607 3.44755,-6.77665 3.55262,-8.33671 0.0576,-0.85562 -0.22848,-1.68109 -0.96625,-2.78786 -0.57646,-0.8648 -1.26533,-2.00293 -1.53082,-2.5292 -0.26549,-0.52631 -0.90331,-1.39944 -1.41739,-1.94028 -0.51407,-0.54088 -1.59178,-1.95926 -2.3949,-3.152 -0.80312,-1.19274 -2.10444,-3.01837 -2.89183,-4.05695 -0.78739,-1.03857 -1.4323,-2.02508 -1.43314,-2.19219 -0.002,-0.43857 2.39832,0.0768 3.86263,0.82931 1.70609,0.87672 3.59163,2.49654 6.67699,5.73599 2.91169,3.05714 4.44113,4.14549 5.82553,4.14549 h 0.93756 l -0.58397,-1.12928 c -0.32118,-0.6211 -0.80151,-1.34683 -1.06739,-1.61268 -0.26588,-0.26589 -0.48342,-0.63257 -0.48342,-0.81489 0,-0.65715 -3.46664,-5.8305 -5.06302,-7.55565 -0.89773,-0.97014 -1.63393,-1.88295 -1.636,-2.02844 -0.007,-0.46958 -10.61958,-10.76677 -11.77173,-11.42156 -0.38443,-0.21848 -1.50547,-1.13009 -2.49119,-2.02583 -0.98573,-0.89574 -2.8241,-2.4312 -4.08528,-3.41214 -1.26119,-0.98093 -3.30438,-2.68869 -4.54045,-3.79501 -1.23607,-1.10631 -2.45091,-2.12975 -2.69966,-2.27435 -0.24875,-0.14457 -1.48491,-1.29551 -2.74703,-2.55764 -2.05382,-2.0538 -2.44181,-2.29475 -3.69534,-2.29475 -1.59371,0 -1.88314,0.25915 -2.75797,2.46944 -0.730922,1.84672 -1.372012,2.44267 -2.644462,2.45823 -0.91032,0.0113 -0.91844,-0.0134 -1.14033,-3.42837 -0.33419,-5.14329 -0.7972,-6.55195 -4.75409,-14.46388 -0.89758,-1.79476 -1.73383,-3.2632 -1.85832,-3.2632 -0.28039,-7e-5 -2.79569,-3.75526 -2.79569,-4.17386 0,-0.16725 -0.56787,-0.88881 -1.26194,-1.60347 -1.28046,-1.31845 -3.7548,-4.84581 -3.5458,-5.05481 0.14772,-0.14772 4.2229,1.69928 4.45497,2.01912 0.097,0.13371 1.60513,0.96166 3.35138,1.83989 5.14943,2.58977 5.62723,2.84995 5.99723,3.26573 0.39131,0.43972 2.62052,1.8501 4.191192,2.65169 0.55891,0.28523 1.69453,1.11569 2.52358,1.84546 0.82906,0.72977 1.61146,1.32685 1.73866,1.32685 0.1272,0 1.50999,0.99218 3.07286,2.20486 1.56288,1.21267 3.89507,3.00677 5.18265,3.98688 1.28758,0.98011 2.97606,2.38215 3.75217,3.11564 1.56121,1.47547 3.35139,2.54539 3.35139,2.00298 0,-0.66604 1.4082,-1.11232 2.72833,-0.86467 1.04194,0.19547 2.00777,0.95556 4.75756,3.74409 1.89762,1.92433 3.45022,3.65696 3.45022,3.85025 0,0.39624 1.79334,2.88537 2.21197,3.07022 0.14944,0.066 0.56404,0.70097 0.92134,1.41112 1.65505,3.28937 3.68507,6.98468 4.10076,7.46474 0.25202,0.29104 0.96681,1.7472 1.58842,3.23592 0.93602,2.24169 1.32076,2.78201 2.23927,3.14491 0.60999,0.24098 1.3472,0.61743 1.63824,0.83651 0.29104,0.21911 2.43416,1.25874 4.7625,2.31027 2.32833,1.05152 4.31271,2.01651 4.40972,2.14439 0.25071,0.33052 4.6963,2.53443 7.40833,3.67267 1.26118,0.52934 2.37243,1.08546 2.46945,1.23588 0.52167,0.80882 13.84267,5.07171 16.75694,5.36247 l 1.05834,0.10559 -0.12685,-3.58288 c -0.11742,-3.31647 -0.0732,-3.61157 0.59417,-3.96875 1.18791,-0.63574 1.36336,-0.47456 1.7881,1.6426 0.35979,1.79338 1.54452,4.07441 1.87535,3.61072 0.22864,-0.32047 -0.33367,-13.57302 -0.61196,-14.42276 l -0.27709,-0.8461 1.14172,0.66971 c 0.62794,0.3683 1.86398,1.75408 2.74674,3.07947 0.88277,1.32542 1.98117,2.58121 2.44089,2.79068 0.45973,0.20945 0.83587,0.49859 0.83587,0.64248 0,0.2974 2.15618,1.11429 2.37186,0.89863 0.0774,-0.0774 0.14967,-0.78478 0.16053,-1.57187 0.0144,-1.04119 -0.38215,-2.16334 -1.45539,-4.11885 -1.57326,-2.86657 -1.54042,-3.69669 0.14624,-3.69669 1.35012,0 2.80283,2.27806 4.05553,6.35973 l 0.80905,2.6361 0.6187,-1.43549 c 0.50555,-1.17302 0.91915,-1.55028 2.26168,-2.06297 0.90365,-0.34512 2.07329,-0.9894 2.5992,-1.43175 0.86712,-0.72933 2.0234,-1.40984 6.72147,-3.95584 0.84255,-0.4566 1.7667,-1.06496 2.05367,-1.35191 0.81728,-0.81728 1.06888,-0.63338 1.32504,0.96858 0.18526,1.15849 0.59893,1.82616 1.85796,2.99862 0.8908,0.82955 1.74565,1.50826 1.89967,1.50826 0.15401,0 0.38864,-0.34223 0.5214,-0.76048 0.19692,-0.62047 -0.1842,-1.16766 -2.06997,-2.9718 -3.89317,-3.7247 -4.24642,-5.43994 -1.12033,-5.43994 1.2907,0 1.67125,0.18708 2.69134,1.32292 0.65344,0.7276 1.52792,1.79313 1.94327,2.36784 0.65167,0.90166 0.83295,0.98037 1.32242,0.57415 0.77321,-0.64171 0.7138,-1.04945 -0.26512,-1.81949 -0.45779,-0.36008 -1.00336,-1.33544 -1.21237,-2.16743 -0.74287,-2.95702 -1.09267,-4.66655 -0.97826,-4.78095 0.0638,-0.0638 0.74142,0.20997 1.50581,0.6084 1.57967,0.82338 2.81236,2.0634 3.95923,3.98275 0.43476,0.72761 0.91216,1.32292 1.0609,1.32292 0.26844,0 0.87792,1.30602 1.91433,4.10214 0.55381,1.49412 1.61117,5.74064 2.35516,9.45878 0.23063,1.15259 0.55118,2.34322 0.71233,2.64583 0.85163,1.59921 1.39377,6.73573 1.40858,13.34555 l 0.0156,6.9602 0.6946,-1.31554 c 1.02811,-1.94716 1.20016,-4.8387 0.55144,-9.26779 -1.05406,-7.19646 -1.22733,-9.16637 -0.94113,-10.69989 0.44309,-2.3742 0.8907,-2.56181 2.30894,-0.96764 1.08118,1.21525 1.68523,2.65599 2.48276,5.92155 0.12851,0.52624 0.42653,3.93937 0.66226,7.58472 0.41916,6.48223 0.44084,6.60079 0.98578,5.3932 1.52532,-3.38 2.07839,-7.29146 1.36823,-9.67634 -0.17743,-0.59588 -0.66482,-2.35338 -1.08307,-3.9056 -0.77136,-2.86262 -3.22514,-8.73404 -4.05441,-9.70139 -0.2495,-0.29104 -1.29306,-2.35479 -2.31903,-4.58611 -1.02597,-2.23132 -2.00422,-4.15001 -2.1739,-4.26371 -0.37186,-0.24924 -2.11712,-5.3032 -1.90469,-5.51561 0.0822,-0.0822 0.77232,0.24384 1.5337,0.7245 1.3743,0.86755 4.32678,5.20559 4.32678,6.35727 0,0.29178 0.2501,0.78059 0.55577,1.08623 0.30567,0.30569 1.03828,1.9442 1.62803,3.6412 1.63728,4.71124 2.89632,7.17197 4.51175,8.81803 1.58619,1.61629 3.05256,2.05246 2.65146,0.78867 -0.2526,-0.79586 -3.51241,-7.63866 -4.03097,-8.46158 -0.1834,-0.29104 -1.20819,-2.47174 -2.2773,-4.84601 -1.06911,-2.37426 -2.11217,-4.51739 -2.31791,-4.7625 -0.20573,-0.24511 -1.18858,-2.03316 -2.18411,-3.97344 -0.99552,-1.94028 -2.10373,-3.81021 -2.46267,-4.15537 -0.80308,-0.77226 -1.83868,-2.72118 -1.58224,-2.97765 0.63201,-0.632 6.33622,5.64592 8.08386,8.89691 1.26601,2.35508 4.90507,9.89454 5.34789,11.07987 1.02434,2.74189 2.22558,5.35661 2.73035,5.94307 0.29159,0.33877 0.9052,1.33032 1.36358,2.20345 0.45838,0.87312 1.20798,2.00522 1.66577,2.51573 l 0.83236,0.92826 0.84004,-0.84007 c 0.54978,-0.54977 1.24749,-0.84003 2.01921,-0.84003 1.76985,0 3.38407,1.92345 5.42602,6.46539 1.63851,3.64462 3.9457,6.89102 4.25982,5.99394 0.14541,-0.41529 -0.35256,-1.44949 -1.66769,-3.4635 -1.57317,-2.40919 -1.62828,-2.6695 -0.72068,-3.40441 0.45896,-0.37165 1.00888,-0.62329 1.22204,-0.55915 0.51043,0.15353 4.14011,7.35312 5.72606,11.35789 1.42027,3.58641 1.59938,3.88091 3.60792,5.93323 2.44845,2.50176 2.79294,2.7838 2.99695,2.45371 0.10823,-0.17512 0.16397,-2.30389 0.12393,-4.73068 -0.0764,-4.62866 0.18295,-5.58253 1.5179,-5.58253 0.48969,0 0.71642,0.50779 1.06327,2.38125 0.45695,2.46828 1.52569,5.02708 2.09966,5.02708 0.1813,0 0.42203,-0.51594 0.53499,-1.14653 0.18796,-1.04958 0.0215,-1.85434 -1.26213,-6.10672 -0.58166,-1.92673 -0.21498,-3.25505 0.98146,-3.55533 1.61534,-0.40545 2.60622,0.49667 3.97316,3.61728 1.68935,3.8566 2.8284,5.72995 3.64077,5.9878 1.36811,0.4342 1.48897,-0.26176 1.49426,-8.60372 0.004,-4.40443 0.12859,-8.2023 0.27962,-8.43968 0.15243,-0.23964 -0.26688,-2.20119 -0.9427,-4.40972 -0.6695,-2.18797 -1.57575,-5.40685 -2.01393,-7.1531 -0.43815,-1.74625 -0.92344,-3.34328 -1.07838,-3.54891 -0.52221,-0.6931 -3.43845,-14.2869 -4.04361,-18.84885 -0.29111,-2.19441 -0.15208,-2.20084 2.22624,-0.10297 2.4674,2.17643 6.21874,5.0305 6.62602,5.04116 0.19403,0.005 0.7258,0.40252 1.18173,0.88321 0.75181,0.79266 7.04282,4.05275 7.82056,4.05275 0.17854,0 0.95045,0.32621 1.71541,0.72492 0.78455,0.40894 2.74987,0.89454 4.50879,1.11404 3.90479,0.48729 7.40212,-0.14715 10.46522,-1.89844 1.13055,-0.64636 2.40055,-1.36761 2.82222,-1.60271 0.42164,-0.23512 1.18191,-0.87012 1.68953,-1.41111 0.50761,-0.54102 1.57998,-1.65276 2.38312,-2.4706 0.80313,-0.81781 1.91177,-2.25281 2.46369,-3.18887 2.30904,-3.91608 4.64118,-8.56465 5.36325,-10.69026 0.9646,-2.83949 1.24594,-3.15279 1.77955,-1.98163 0.32621,0.71595 0.32847,1.49818 0.01,3.42737 -0.22705,1.37484 -0.32766,2.63744 -0.22363,2.80578 0.10403,0.16836 0.0438,0.39594 -0.13391,0.50576 -0.43837,0.27093 -1.1701,3.42561 -1.1701,5.04469 0,1.96024 -2.16115,5.94642 -5.62508,10.37523 -1.0027,1.28203 -5.12169,4.27944 -7.62148,5.54619 -0.72774,0.3688 -2.4234,1.10882 -3.76816,1.64451 -2.28727,0.91116 -2.67409,0.95994 -5.99722,0.75618 -2.2007,-0.13494 -4.68323,-0.55651 -6.5248,-1.10804 -4.76381,-1.42667 -6.78706,-1.1322 -8.2368,1.19881 -0.76253,1.22608 -0.78447,1.53603 -0.76461,10.78734 0.0127,5.99673 0.16916,10.04772 0.42196,10.93612 0.22084,0.77611 0.5087,2.76048 0.63969,4.40972 0.13099,1.64923 0.28381,3.07904 0.33958,3.1774 0.41286,0.72792 0.81337,17.58907 0.5266,22.16936 -0.15078,2.40849 -0.0865,2.99773 0.35291,3.23275 0.29549,0.15808 2.83549,0.28847 5.64445,0.28981 8.42458,0.004 8.10574,-0.0243 8.10574,0.71642 0,0.36192 0.31887,1.06341 0.70866,1.55889 0.38975,0.49551 0.80895,1.42974 0.93158,2.07606 0.27033,1.42498 0.72563,2.05529 1.48974,2.06248 1.72241,0.0162 1.8335,-0.57266 -5.43246,28.79249 -3.83441,15.49665 -7.11231,28.23026 -7.28426,28.2969 -0.17191,0.0666 -0.7263,0.93977 -1.23193,1.94028 -0.50564,1.00052 -1.80019,3.16848 -2.8768,4.81771 -1.07664,1.64924 -2.44401,3.80979 -3.03865,4.80124 -0.59464,0.99141 -1.52651,2.42016 -2.07081,3.175 -0.5443,0.7548 -1.61198,2.32487 -2.37257,3.48904 -2.19449,3.3589 -6.04333,8.74656 -7.4857,10.47852 -0.7276,0.87373 -1.32291,1.70815 -1.32291,1.85427 0,0.25989 -1.65774,2.45107 -2.93624,3.88112 -0.35377,0.39568 -1.34973,1.67192 -2.21322,2.83609 -3.36723,4.53961 -9.44908,12.08306 -12.00743,14.89304 -0.92151,1.01216 -1.82695,2.12341 -2.01209,2.46945 -0.18515,0.34604 -1.22631,1.6045 -2.31369,2.79657 -3.51905,3.8578 -6.16708,6.82604 -6.36745,7.13737 -0.1808,0.28095 -2.3128,2.63687 -8.66238,9.57223 -4.54904,4.9687 -6.82415,7.5709 -7.86216,8.99245 -0.56671,0.77611 -1.39043,1.72861 -1.83048,2.11667 -0.44005,0.38805 -1.39649,1.57868 -2.12542,2.64583 -0.72893,1.06715 -1.67951,2.25778 -2.11242,2.64583 -0.4329,0.38806 -1.33328,1.52774 -2.00086,2.53263 -0.66757,1.00485 -1.72175,2.39825 -2.34261,3.0964 -0.62086,0.69815 -1.84321,2.3113 -2.71633,3.58475 -0.87313,1.2735 -2.2751,3.13447 -3.11551,4.13555 -0.8404,1.00107 -1.77702,2.29637 -2.08137,2.87845 -0.30435,0.58208 -1.32331,1.92345 -2.26435,2.98083 -0.94105,1.05738 -1.71099,2.05638 -1.71099,2.22 0,0.45505 -2.86443,4.14778 -3.21739,4.14778 -0.17072,0 -0.31039,0.16577 -0.31039,0.36841 0,0.40499 -2.86563,4.35917 -4.62242,6.37833 -0.61189,0.70326 -1.57681,1.97326 -2.14426,2.82222 -0.56744,0.84896 -1.71749,2.25792 -2.55567,3.13104 -0.83817,0.87313 -1.67739,1.87935 -1.86494,2.23608 -0.83082,1.58031 -13.95489,15.08658 -16.53128,17.01275 -0.76208,0.56973 -2.19032,1.82964 -3.17387,2.79978 -0.98354,0.97014 -3.01839,2.87514 -4.52189,4.23334 -1.50349,1.35819 -3.66272,3.38225 -4.79829,4.49791 -1.13556,1.11566 -2.19693,2.02847 -2.3586,2.02847 -0.16167,0 -1.18944,0.83344 -2.28396,1.85209 -2.97127,2.76532 -9.16288,7.23399 -11.85851,8.55863 -1.30712,0.64234 -3.79848,1.57893 -5.53634,2.08136 -2.67851,0.77434 -3.80682,0.90724 -7.40833,0.87256 -2.33673,-0.0226 -4.56609,-0.11511 -4.95414,-0.20578 z M 93.659918,432.68867 c 0.9627,-0.83583 4.92974,-1.92585 11.140282,-3.06098 9.50161,-1.73662 13.6545,-3.37905 13.08455,-5.17479 -0.32657,-1.02895 -0.92951,-1.1763 -3.26069,-0.79689 -2.19699,0.35757 -7.08688,0.97557 -16.703032,2.11102 -7.75505,0.91571 -12.3786,1.64112 -14.64028,2.29708 -0.97013,0.28134 -3.42098,0.92121 -5.44632,1.42187 -6.79824,1.6806 -6.53226,2.07384 1.76171,2.60463 9.74438,0.62364 12.14517,0.80867 12.29827,0.94791 0.31943,0.29055 1.23746,0.10862 1.76551,-0.34985 z m -4.64946,-29.85015 c 1.89339,-0.96728 4.04666,-2.31665 4.78507,-2.99861 1.27566,-1.17814 2.00884,-1.53952 2.00884,-0.99021 0,0.13733 -0.585,0.84882 -1.3,1.58104 -0.715,0.73223 -1.206,1.4253 -1.09111,1.5402 0.30139,0.30137 2.09329,-0.69307 3.33111,-1.8487 0.58503,-0.54621 1.84317,-1.61579 2.79587,-2.37688 0.952702,-0.76108 2.654232,-2.31256 3.781182,-3.44769 1.12695,-1.13517 2.19582,-1.9732 2.37527,-1.86228 0.63735,0.39391 -0.59453,2.43674 -2.11503,3.50738 -2.03918,1.43585 -2.37868,2.01348 -1.85674,3.15899 0.53259,1.16893 0.94946,1.15065 1.45247,-0.0637 0.22168,-0.5352 1.07438,-1.3879 1.89488,-1.89488 5.1922,-3.20816 6.51952,-3.48805 2.52663,-0.53276 -2.4779,1.83398 -3.21459,2.99956 -2.60995,4.12937 0.53997,1.00891 1.2488,0.83551 2.35385,-0.57577 1.04042,-1.32881 7.64781,-6.75065 10.33379,-8.47962 0.87312,-0.56204 2.23856,-1.51052 3.0343,-2.1077 0.79575,-0.59722 2.62137,-1.75641 4.05695,-2.57599 4.88518,-2.78895 8.95677,-5.26457 10.49734,-6.38263 0.84545,-0.61358 2.07577,-1.37244 2.73402,-1.68635 0.65826,-0.3139 1.19683,-0.68354 1.19683,-0.8214 0,-0.13787 0.83344,-0.7795 1.85209,-1.4259 1.01864,-0.64636 2.01083,-1.3468 2.20486,-1.55649 0.19403,-0.20969 1.12999,-0.9277 2.07992,-1.59554 0.94992,-0.66788 2.69617,-2.10076 3.88055,-3.18417 1.18438,-1.08342 2.48792,-2.19467 2.89676,-2.46945 0.40883,-0.27478 1.5705,-1.53116 2.58147,-2.79195 1.01096,-1.26083 2.04988,-2.41088 2.3087,-2.55573 0.25882,-0.14486 0.97717,-1.161 1.59635,-2.2581 0.9502,-1.68367 1.06566,-2.12672 0.74032,-2.84074 -0.55543,-1.21906 -0.47399,-4.30784 0.16286,-6.17689 0.30157,-0.88505 1.09532,-2.24826 1.76388,-3.02934 0.66857,-0.78105 1.21558,-1.52464 1.21558,-1.65241 0,-0.23718 2.23554,-3.07718 4.48917,-5.70301 0.68982,-0.80373 1.69767,-2.15311 2.23966,-2.99861 0.54199,-0.8455 1.19442,-1.778 1.44983,-2.07225 2.10794,-2.42842 3.2831,-6.02294 3.28506,-10.04835 10e-4,-2.8079 -0.65495,-6.52639 -1.15193,-6.52639 -0.0989,0 -0.38809,0.27782 -0.64261,0.61736 -0.43112,0.57514 -0.52574,0.55048 -1.38316,-0.36039 -1.32147,-1.40385 -1.70043,-0.93652 -1.41348,1.74304 0.3428,3.201 -0.66945,4.59556 -2.75481,3.79532 -0.40756,-0.15639 -0.45629,-0.4452 -0.21627,-1.28213 0.23567,-0.82169 0.0172,-2.27211 -0.91283,-6.05992 -1.44106,-5.86927 -1.47861,-6.62541 -0.43099,-8.67963 1.52944,-2.99904 2.28556,-2.05744 2.7215,3.38899 0.16339,2.04146 0.40479,3.81946 0.53642,3.95108 0.4865,0.48648 1.23995,-1.17888 1.23846,-2.73738 -7.1e-4,-0.88456 -0.39437,-2.71953 -0.87451,-4.07773 -0.48013,-1.35819 -0.87631,-3.06475 -0.88041,-3.79236 -0.009,-1.53342 0.39543,-1.64736 2.81479,-0.79375 0.8249,0.29105 1.55923,0.52917 1.63185,0.52917 0.70131,0 -0.58848,-6.78924 -1.77427,-9.33947 -0.45342,-0.97515 -0.89879,-2.01115 -0.98969,-2.3022 -0.0909,-0.29104 -0.4472,0.74084 -0.79176,2.29306 -0.34456,1.55222 -0.85048,3.25878 -1.12426,3.79236 -0.62563,1.21931 -1.50455,1.30708 -1.27911,0.12774 0.24425,-1.27769 -0.47811,-2.27496 -2.2736,-3.13884 -2.36642,-1.13859 -2.48017,-1.48593 -1.48333,-4.52935 1.18978,-3.63252 1.21534,-9.56098 0.0571,-13.24451 -0.43731,-1.39076 -0.91356,-2.58138 -1.05833,-2.64583 -0.14478,-0.0644 -1.19365,-1.98244 -2.33085,-4.26227 -1.13719,-2.27982 -2.18062,-4.14513 -2.31872,-4.14513 -0.71701,0 -3.19838,-6.30506 -3.19838,-8.12695 0,-0.76895 -0.0873,-1.39805 -0.1939,-1.39805 -0.51477,0 -2.61842,1.30686 -4.06213,2.52356 -0.88561,0.74633 -1.74239,1.35699 -1.90395,1.35699 -0.29105,0 -2.88837,2.00223 -4.24696,3.27389 -0.38806,0.36322 -1.81681,1.53511 -3.175,2.6042 -6.36293,5.00842 -7.86615,6.21429 -9.27795,7.44255 -0.83426,0.72581 -2.02489,1.58362 -2.64583,1.90631 -0.62095,0.32265 -1.68462,1.09079 -2.36372,1.70698 -1.088,0.98722 -3.51426,2.46885 -4.04289,2.46885 -0.10474,0 -0.19045,-0.71949 -0.19045,-1.59882 0,-0.87937 -0.23812,-2.16874 -0.52916,-2.8653 -0.29104,-0.69656 -0.52917,-1.38599 -0.52917,-1.53208 0,-0.3072 1.5373,-0.66714 4.05695,-0.94992 3.43069,-0.38503 5.11527,-1.90084 5.11527,-4.6028 0,-0.81591 -0.0774,-0.84752 -1.4993,-0.61197 -0.82462,0.1366 -1.76668,0.38869 -2.09348,0.56018 -0.32679,0.17152 -0.97497,0.31182 -1.44039,0.31182 -0.90482,0 -6.7675,-1.79934 -7.98405,-2.45043 -2.25263,-1.20555 -6.51484,-1.04006 -9.25816,0.35948 l -1.30748,0.66703 -0.24688,-1.14014 c -0.54196,-2.50289 -2.81922,-4.11663 -6.599332,-4.67649 -1.84335,-0.27302 -2.47222,0.0649 -5.6661,3.04493 -0.81161,0.75727 -2.17516,1.71972 -3.03011,2.13882 -1.37952,0.67628 -1.71696,0.71427 -2.99861,0.33778 -7.38876,-2.17043 -12.52965,-2.61648 -19.25944,-1.67114 -4.12998,0.58014 -12.15207,2.45047 -12.84655,2.99516 -0.21044,0.16502 -3.4715,1.28185 -7.24679,2.48175 -3.7753,1.19994 -7.02967,2.31567 -7.23195,2.47943 -0.44159,0.35747 -6.07213,2.08813 -10.9511,3.36599 -1.94028,0.50822 -3.84528,1.07446 -4.23333,1.25836 -1.08354,0.51351 -7.14905,1.67668 -10.17118,1.95055 -1.48677,0.13472 -2.9419,0.42153 -3.23363,0.63736 -0.29173,0.21583 -0.95148,1.97989 -1.46609,3.92017 -0.78614,2.96404 -0.9411399,4.31705 -0.9698899,8.46667 -0.0311,4.48603 0.0467,5.14269 0.8477299,7.1616 0.48507,1.22248 1.32527,2.64774 1.86711,3.1672 l 0.98517,0.94449 5.54122,-0.061 c 5.66809,-0.0623 13.6168,-0.82349 17.71206,-1.69601 1.26118,-0.26871 4.91243,-1.0475 8.11388,-1.73062 3.20146,-0.68312 8.28146,-1.73387 11.28889,-2.335 3.00743,-0.60114 5.78556,-1.23924 6.17362,-1.41799 2.13183,-0.982 15.01434,-2.44447 21.5368,-2.44493 l 4.25069,-2.8e-4 -0.13871,-1.18812 c -0.34907,-2.99004 2.29554,-4.85722 7.21408,-5.09341 2.88903,-0.13871 6.519902,0.56416 7.009892,1.35696 0.40509,0.65546 -1.93059,3.62818 -4.336162,5.51882 -2.80516,2.20469 -6.11188,3.98805 -10.08131,5.43705 -1.58263,0.57771 -3.36852,1.27825 -3.96866,1.55677 -1.2696,0.58918 -5.66927,1.62726 -10.19774,2.40609 -6.4068,1.10186 -11.12154,1.45408 -19.49097,1.45598 -8.52779,0.004 -8.55486,0.004 -8.55486,0.7632 0,1.23342 -1.08935,2.16704 -3.42845,2.93832 -1.81579,0.5987 -3.09913,0.72334 -7.44896,0.72334 -4.57177,0 -5.36463,0.0848 -6.09654,0.65172 -2.89729,2.24441 -5.33419,3.54351 -8.07327,4.30392 -1.64924,0.45784 -3.92668,1.35576 -5.06098,1.99535 -1.13429,0.63959 -2.17472,1.1629 -2.31204,1.1629 -0.44481,0 -2.40912,2.26003 -3.02402,3.47927 -1.4497399,2.87457 -0.8658399,7.56863 1.42437,11.45088 0.66636,1.12956 1.21156,2.11801 1.21156,2.19657 0,0.0785 0.87312,1.05876 1.94027,2.17823 1.06716,1.1195 1.94028,2.13723 1.94028,2.26162 0,0.12439 1.15094,1.14081 2.55764,2.2587 1.4067,1.11788 2.71639,2.21276 2.91042,2.43303 0.53096,0.60283 4.7333,3.13825 6.43819,3.88437 0.82462,0.36089 1.49931,0.7844 1.49931,0.94118 0,0.45829 4.54643,1.74737 7.23194,2.05055 4.52012,0.51026 14.89595,-0.80655 17.63889,-2.23862 0.58209,-0.30392 1.22172,-0.55354 1.42142,-0.55471 0.78117,-0.005 10.31926,-3.21028 11.98414,-4.0277 0.97014,-0.47632 3.03389,-1.36758 4.58611,-1.98063 1.55222,-0.61302 4.75627,-2.05243 7.1201,-3.19867 2.36383,-1.14625 4.40772,-2.08407 4.54199,-2.08407 0.56535,0 4.3893,-1.88602 4.3893,-2.16486 0,-0.16753 0.17079,-0.30459 0.37953,-0.30459 0.20875,0 3.10593,-1.33339 6.4382,-2.96312 14.985112,-7.32875 18.986602,-9.09736 19.475832,-8.60813 0.47632,0.47632 0.89883,5.53275 0.68432,8.18988 -0.432,5.35121 -1.88324,9.53004 -5.82981,16.78693 -0.47484,0.87312 -1.03969,1.74625 -1.25522,1.94028 -0.48377,0.4355 -2.27424,3.17648 -2.95794,4.52822 -0.27832,0.55026 -0.87814,1.40197 -1.33295,1.89272 -0.73737,0.79565 -2.2694,3.14829 -4.43344,6.80822 -0.401542,0.6791 -0.834072,1.3141 -0.961182,1.41111 -0.12712,0.097 -0.49685,0.69501 -0.82163,1.32885 -0.50568,0.98689 -0.69013,1.09915 -1.28394,0.78133 -0.45003,-0.24084 -0.69344,-0.73826 -0.69344,-1.41704 0,-0.57524 -0.0792,-1.04592 -0.1759,-1.04592 -0.0967,0 -1.56519,0.61726 -3.2632,1.37168 -1.69801,0.75441 -3.72229,1.57257 -4.4984,1.81811 -0.77611,0.24553 -1.96673,0.73282 -2.64583,1.08285 -1.57008,0.80931 -6.77505,2.11437 -13.75834,3.44974 -3.00743,0.5751 -8.08743,1.62839 -11.28888,2.34068 -3.20146,0.71226 -6.61274,1.43464 -7.58063,1.60525 -2.02612,0.35715 -2.79153,0.63796 -6.83322,2.5068 l -2.94856,1.36338 0.13048,2.58389 c 0.1072,2.12287 0.32095,2.89239 1.19814,4.31337 0.91353,1.47984 2.70128,2.87758 3.76975,2.94732 0.14277,0.009 0.67011,-0.60343 1.17188,-1.36165 1.46672,-2.21636 3.71286,-3.03502 8.26993,-3.0142 2.43271,0.0113 4.10661,0.19289 4.87661,0.52959 l 1.17244,0.51269 -1.4639,1.41065 c -2.63928,2.54335 -2.82126,2.77061 -2.82126,3.52333 0,0.40968 0.1905,0.93536 0.42334,1.16819 0.56613,0.56614 1.69333,0.53996 1.69333,-0.0393 0,-0.25446 0.32908,-0.81587 0.73129,-1.2476 l 0.73128,-0.78496 1.16244,0.71843 c 0.63934,0.39515 1.54057,0.72316 2.00274,0.72894 0.7635,0.01 0.69818,0.13339 -0.71469,1.35471 -1.57366,1.36027 -1.65071,1.83811 -0.40396,2.50535 0.50277,0.26907 0.92252,0.1281 1.87692,-0.63038 0.67613,-0.53731 1.92368,-1.26707 2.77235,-1.62164 0.84866,-0.35458 1.86052,-0.77809 2.24857,-0.94118 1.99057,-0.83647 2.86553,-0.46013 1.62481,0.69889 -1.17515,1.09777 -1.36891,1.83832 -0.63939,2.4438 0.33311,0.27643 1.09093,0.14827 2.80788,-0.47495 1.29339,-0.46948 3.39137,-1.09474 4.66217,-1.38945 1.27081,-0.29471 3.11868,-0.94537 4.10638,-1.44586 0.98769,-0.50052 1.88895,-0.81686 2.0028,-0.70302 0.48956,0.48955 -0.57909,2.19083 -1.95775,3.11676 -1.64322,1.1036 -1.77984,1.46798 -0.91055,2.42856 0.83581,0.92354 1.3831,0.79992 1.89142,-0.42725 0.2443,-0.58981 0.77514,-1.30418 1.17962,-1.5875 0.78265,-0.54818 2.34234,-0.70397 2.34234,-0.23393 0,0.58815 -2.71487,2.86138 -4.28757,3.59005 -2.32031,1.07505 -2.98976,1.88778 -2.47875,3.00937 0.63961,1.40377 2.30971,1.17178 6.32241,-0.87821 z m 27.960572,-37.28967 c 0,-2.2527 1.09892,-6.75453 1.74651,-7.15479 0.49219,-0.30416 2.8396,-6.44003 2.8396,-7.42234 0,-0.38625 0.15233,-0.70227 0.33851,-0.70227 0.64165,0 2.07278,1.8724 2.2815,2.98499 0.2212,1.17913 -0.30118,4.61515 -0.80123,5.27029 -0.16279,0.21329 -0.57011,1.10215 -0.90515,1.97527 -0.33504,0.87313 -1.19361,2.57087 -1.90792,3.77278 -1.11736,1.88006 -1.65231,2.3966 -3.32723,3.21265 -0.14552,0.0709 -0.26459,-0.80056 -0.26459,-1.93658 z m 36.68889,-19.96133 c 0,-1.63664 0.73576,-4.39247 2.42324,-9.07641 0.907,-2.51756 1.08225,-3.52583 1.09242,-6.28498 0.007,-1.80753 -0.15949,-3.60705 -0.36924,-3.99898 -0.5647,-1.05516 -0.0149,-1.3099 0.76111,-0.35267 1.77937,2.1948 2.87353,9.25244 2.11779,13.66036 -0.58509,3.4126 -1.53981,5.22277 -3.42594,6.4957 -2.18119,1.47207 -2.59938,1.40081 -2.59938,-0.44302 z m 9.6209,-15.5146 c -1.87759,-2.03415 -2.82939,-4.64986 -3.28268,-9.0213 -0.47669,-4.59709 0.39108,-11.70439 1.42905,-11.70439 1.16194,0 3.16378,12.65064 3.16799,20.02013 0.001,1.6987 -0.26559,1.84179 -1.31436,0.70556 z m -50.63354,-39.09963 c -0.34078,-0.19847 -1.29328,-0.4753 -2.11667,-0.61525 l -1.49708,-0.25438 -0.10431,-2.37265 -0.10431,-2.37267 h 1.04925 c 1.0039,0 1.94928,-0.60862 2.22356,-1.43143 0.0801,-0.24042 0.50629,-0.2909 1.13117,-0.13409 1.29582,0.32526 2.48867,2.81033 2.15679,4.49333 -0.56716,2.87619 -1.25491,3.55106 -2.7384,2.68714 z m 39.99554,-12.89301 c -1.19075,-0.83403 -1.72394,-2.40566 -2.0093,-5.92261 -0.24859,-3.06366 -0.24146,-3.10447 0.50518,-2.89094 0.41653,0.11913 1.04657,0.29771 1.40009,0.39684 1.22089,0.34234 2.1965,2.74948 2.42465,5.98241 0.21234,3.00894 0.21221,3.00958 -0.64346,3.00958 -0.47071,0 -1.22544,-0.25887 -1.67716,-0.57528 z m -173.960682,48.24991 c 0,-0.16672 -0.55408,-1.00016 -1.2313,-1.85208 -0.67721,-0.85192 -1.23284,-1.74738 -1.23472,-1.98991 -0.002,-0.24254 -0.14923,-0.44097 -0.32743,-0.44097 -0.84764,0 -4.28231,-7.69892 -7.3183,-16.40417 -1.54674,-4.43505 -2.33039,-6.0857 -5.02451,-10.58333 -1.81095,-3.02324 -7.25981,-8.28234 -8.58805,-8.28898 -0.77225,-0.004 0.0806,7.30398 1.19379,10.22925 1.87448,4.9258 3.62213,8.76198 4.58037,10.05417 0.57554,0.77611 1.52729,2.1596 2.115,3.07442 2.04638,3.18534 9.53552,11.26123 13.89487,14.98346 1.9336,1.651 1.94028,1.6552 1.94028,1.21814 z M 179.08702,291.87305 c 0.43621,-8.44836 0.95253,-11.39127 2.44667,-13.94559 1.48135,-2.53245 2.34105,-3.42191 3.56776,-3.69136 0.55772,-0.12248 1.01403,-0.28988 1.01403,-0.372 0,-0.0821 -0.61602,-0.70581 -1.36894,-1.38603 -2.14421,-1.93718 -2.97804,-4.24335 -3.12356,-8.63918 -0.0989,-2.98799 0.0435,-4.42034 0.73663,-7.40833 0.4726,-2.03729 0.80395,-3.76298 0.73634,-3.83491 -0.26613,-0.28296 -3.08016,2.24783 -3.83189,3.44622 -6.35841,10.13643 -9.56676,24.13949 -7.24148,31.60589 0.78953,2.53517 3.36966,7.93492 3.79824,7.94907 0.13227,0.004 0.79612,0.78458 1.47522,1.73387 0.67909,0.94925 1.27868,1.68225 1.33241,1.62884 0.0537,-0.0534 0.26009,-3.24231 0.45857,-7.08649 z m 66.60021,-75.96636 c -2.40303,-1.52396 -4.27853,-4.53019 -6.3009,-10.09974 -0.42272,-1.16417 -1.05494,-2.75167 -1.40493,-3.52778 -0.34999,-0.77611 -1.23244,-3.15736 -1.96101,-5.29167 -1.40655,-4.12044 -2.40551,-6.34961 -3.20273,-7.14681 -0.26856,-0.26857 -0.48829,-0.62354 -0.48829,-0.78885 0,-0.16531 -0.55458,-1.02711 -1.23239,-1.91509 -0.70625,-0.92524 -1.03696,-1.61452 -0.77463,-1.61452 0.71444,0 3.5696,1.92291 4.32499,2.91281 2.30961,3.02669 4.75625,7.65415 6.73961,12.74692 0.67174,1.72487 1.44042,3.47112 1.70817,3.88056 0.26776,0.40943 1.22261,2.57005 2.12191,4.80137 0.89929,2.23132 1.9195,4.37445 2.26712,4.7625 0.34763,0.38806 0.81623,1.06275 1.04133,1.49931 0.36794,0.7136 0.32592,0.79375 -0.41602,0.79375 -0.45391,0 -1.54391,-0.45575 -2.42223,-1.01276 z m 5.04628,-0.26486 c -0.45223,-0.69787 -1.22631,-2.00561 -1.72016,-2.90604 -0.49386,-0.90043 -1.17939,-1.95467 -1.5234,-2.34273 -0.34402,-0.38806 -1.45031,-2.52007 -2.45843,-4.73777 -1.00813,-2.21774 -2.04747,-4.36086 -2.30965,-4.7625 -0.26218,-0.40167 -1.27218,-2.61306 -2.24445,-4.91423 -0.97226,-2.30117 -2.02583,-4.57782 -2.34125,-5.05922 -0.31543,-0.48137 -1.51985,-2.76578 -2.6765,-5.07646 -1.15665,-2.31067 -2.23651,-4.20121 -2.39969,-4.20121 -0.36952,0 -1.25122,-1.32423 -1.58548,-2.38125 -0.22761,-0.71975 -0.13592,-0.79375 0.98355,-0.79375 1.09511,0 1.52613,0.32103 3.81613,2.84222 1.41987,1.56322 3.40486,4.27794 4.4111,6.03271 1.00624,1.75476 2.06482,3.45233 2.35242,3.77237 0.64307,0.71561 2.73355,5.26792 3.55553,7.74266 0.33371,1.00471 0.74171,1.91015 0.90666,2.0121 0.78672,0.4862 4.85463,16.06815 4.18915,16.04634 -0.0733,-0.004 -0.50329,-0.57534 -0.95553,-1.27324 z M -23.946572,189.31459 c 0.46081,-1.51737 3.07081,-4.49391 5.92804,-6.76058 1.58086,-1.2541 3.49019,-2.80586 4.24297,-3.44834 0.75278,-0.64249 2.06315,-1.66472 2.91193,-2.27162 0.84878,-0.6069 2.3351001,-2.11502 3.3029301,-3.35139 0.96782,-1.23636 1.92181,-2.44198 2.11995,-2.67916 0.19815,-0.23717 0.59778,-1.3583 0.88807,-2.4914 0.65819,-2.56918 0.29514,-4.83469 -1.23393,-7.70012 -0.59055,-1.10665 -1.01493,-2.07089 -0.94308,-2.14274 0.33753,-0.33752 2.02767,0.67095 2.74061,1.63526 0.95582,1.2928 1.72122,1.39239 1.72122,0.22394 0,-1.10539 -1.94453,-4.66382 -3.55775,-6.51053 l -1.2647,-1.44776 -1.43721,1.23021 c -0.79047,0.67661 -1.5432601,1.2302 -1.6728601,1.2302 -0.1296,0 -0.7122,0.47656 -1.29467,1.05903 -0.58246,0.58246 -2.14732,1.69462 -3.47747,2.47147 -1.33014,0.77685 -2.64651,1.64051 -2.92525,1.91926 -0.53211,0.53211 -3.49365,2.22981 -6.33051,3.62898 -0.92163,0.45455 -1.67569,0.94846 -1.67569,1.09758 0,0.14912 -1.23031,0.92878 -2.73403,1.73258 -3.41759,1.82685 -10.4768,6.66308 -11.97013,8.20068 l -1.12221,1.15547 -1.2214,-0.72064 c -1.19533,-0.70526 -2.16654,-1.05012 -9.128183,-3.24126 -1.881982,-0.59234 -4.522779,-1.62954 -5.868436,-2.30487 -5.062908,-2.5409 -6.929146,-4.97679 -6.536,-8.53105 0.201126,-1.8183 0.197764,-1.82587 -1.288129,-2.90225 -1.606645,-1.16385 -3.365456,-1.65292 -4.720868,-1.31273 -0.85094,0.21357 -2.682837,2.84135 -2.682837,3.84841 0,0.27883 -0.335292,0.93323 -0.745094,1.4542 -0.646743,0.8222 -0.961065,0.93326 -2.38125,0.84133 l -1.636156,-0.10591 -0.05427,-1.94028 c -0.09594,-3.43022 0.613445,-11.42355 1.135546,-12.79533 0.296321,-0.77856 0.501038,-2.53387 0.49372,-4.23334 -0.01161,-2.69595 -0.0485,-2.84029 -0.516666,-2.02133 -0.48168,0.84261 -0.503154,0.79541 -0.481501,-1.05833 0.01831,-1.56743 0.08237,-1.7708 0.333375,-1.05834 0.234629,0.66599 0.277706,0.45287 0.175921,-0.87038 -0.07413,-0.96377 -0.30888,-1.81035 -0.521658,-1.88128 -0.212777,-0.0709 -0.297107,-0.48659 -0.187399,-0.9237 0.109708,-0.43711 -0.05054,-2.76554 -0.356103,-5.17427 -1.943942,-15.32391 -2.308382,-22.60538 -1.48173,-29.60478 0.309463,-2.620285 0.818657,-5.55716 1.131543,-6.526395 0.87925,-2.723685 4.002158,-8.782837 5.226631,-10.140858 1.04458,-1.158509 1.250395,-1.231389 4.098421,-1.451286 4.450413,-0.343616 11.546243,-2.428483 13.758334,-4.042413 0.48507,-0.353904 2.86632,-1.56173 5.291667,-2.684057 2.425347,-1.122327 4.495922,-2.178107 4.601282,-2.346173 0.3386,-0.540135 5.60233,-2.087739 7.10084,-2.087739 2.2444,0 4.28122,1.197373 5.17851,3.044257 0.41704,0.8584 0.75826,1.735074 0.75826,1.948166 0,0.524584 -2.07463,0.09387 -2.82685,-0.586892 -0.64565,-0.584299 -1.75926,-0.707178 -1.75926,-0.19412 0,0.181974 0.71437,0.843884 1.5875,1.470914 0.88809,0.637784 1.5875,1.424556 1.5875,1.785811 0,0.495713 0.27121,0.645752 1.16729,0.645752 0.64201,0 1.40719,-0.198437 1.70038,-0.440972 0.89885,-0.743535 1.71844,-2.307985 1.71844,-3.28018 0,-0.508064 0.11906,-0.86922 0.26458,-0.802563 0.14552,0.06665 2.09021,1.019923 4.32153,2.118378 2.23132,1.098451 5.73037,2.648423 7.77566,3.444381 2.0453,0.795958 4.23474,1.879981 4.86541,2.408936 3.9226201,3.28997 3.9579801,3.331972 4.5265501,5.377007 l 0.56054,2.016143 1.04918,-0.393482 c 1.15106,-0.43169 2.15031,-1.979587 1.82507,-2.82715 -0.33385,-0.870003 -1.60741,-1.096677 -2.13187,-0.379441 -0.37661,0.515056 -0.55167,0.546033 -0.99701,0.176428 -0.95478,-0.792392 -0.58523,-1.067485 1.43398,-1.067485 3.11481,0 5.73213,0.920722 7.40569,2.605183 0.79331,0.79847 1.61758,1.769262 1.83171,2.157317 0.38549,0.698571 0.39437,0.69874 0.89801,0.017 0.50176,-0.679192 0.53533,-0.679492 2.46917,-0.02215 2.4407,0.82962 3.3602099,0.499269 4.3870399,-1.57612 0.82057,-1.658528 0.84985,-1.617493 1.50578,2.110441 0.22191,1.26118 0.54733,2.68993 0.72316,3.175 0.17583,0.485069 0.80372,3.818817 1.39532,7.408332 1.57389,9.54959 2.783,15.95429 3.16345,16.75695 0.18394,0.38805 0.7319,2.4518 1.21771,4.58611 0.4858,2.1343 1.20414,4.9913 1.59631,6.34888 0.39216,1.35757 0.71303,2.48446 0.71303,2.50419 0,0.0197 -1.43236,0.49649 -3.18303,1.05946 -3.14975,1.01288 -3.187,1.03833 -3.56279,2.43469 -0.20886,0.77611 -0.74883,2.20486 -1.19991,3.175 -0.45108,0.97014 -1.24039,2.95451 -1.75402,4.40972 -0.51363,1.45521 -1.30786,3.59834 -1.76496,4.7625 -0.4570899,1.16417 -0.9327199,2.47386 -1.0569499,2.91042 -0.12424,0.43656 -0.36253,0.79375 -0.52955,0.79375 -0.16701,0 -0.61753,0.83344 -1.00116,1.85208 -0.95327,2.53122 -3.08626,6.92158 -3.70454,7.62508 -0.27891,0.31735 -0.94343,1.45013 -1.47672,2.51728 -0.81915,1.63918 -2.34814,4.09049 -3.41067,5.46806 -0.14965,0.19403 -1.09747,1.46403 -2.10626,2.82222 -2.4525,3.30196 -6.55426,7.65359 -9.2296101,9.79185 -1.19876,0.9581 -2.25893,1.84608 -2.35594,1.9733 -0.30466,0.39949 -4.02304,2.75372 -5.6626,3.58517 -0.86314,0.43772 -1.64872,0.90953 -1.74574,1.04842 -0.20434,0.29262 -1.61133,1.06376 -1.94086,1.06376 -0.12284,0 -0.11488,-0.35719 0.0177,-0.79375 z m -53.582096,-30.69167 c -0.09786,-0.24253 -0.177936,-0.0441 -0.177936,0.44097 0,0.48507 0.08007,0.68351 0.177936,0.44098 0.09786,-0.24254 0.09786,-0.63941 0,-0.88195 z m 0.777554,-2.73403 -0.03634,-1.23472 -0.2693,1.05834 c -0.148115,0.58208 -0.285651,1.37583 -0.305636,1.76388 -0.0299,0.58054 0.02426,0.61179 0.305636,0.17639 0.188086,-0.29104 0.325623,-1.08479 0.305637,-1.76389 z M 0.5337681,154.2132 c 2.26362,-7.1806 1.56519,-12.4218 -1.9966,-14.98289 -1.75605,-1.26268 -2.49808,-1.59313 -5.76086,-2.56546 -3.3950801,-1.01177 -10.0604301,-0.31969 -16.6219601,1.7259 -2.04036,0.63609 -6.75855,2.68353 -6.99721,3.0364 -0.097,0.14345 -1.20826,0.92245 -2.46944,1.73112 -2.19113,1.40495 -6.70278,5.98439 -6.70278,6.80348 0,0.68764 6.88167,0.0451 10.36774,-0.96808 2.31436,-0.67262 3.5157,-0.84828 4.58611,-0.67056 l 1.45032,0.24078 -0.96674,-0.90362 c -0.95538,-0.89299 -1.01099,-1.7767 -0.13299,-2.11362 0.23827,-0.0914 1.08002,0.13027 1.87055,0.49268 0.79053,0.36241 2.81547,0.89925 4.49985,1.19298 3.96537,0.6915 7.69181,0.24314 10.6887401,-1.28606 0.63868,-0.32589 1.03406,-0.27383 2.06451,0.27186 2.70039,1.43003 3.30273,3.68889 1.6155,6.05838 l -0.71687,1.00675 1.02591,0.38724 c 0.56425,0.21298 1.36267,0.958 1.77426,1.6556 0.4116,0.6976 0.95602,1.26837 1.20982,1.26837 0.26039,0 0.78857,-1.0376 1.21214,-2.38125 z m -76.9831301,-3.35926 c -0.07793,-0.62626 -0.140415,-0.0274 -0.13885,1.33079 0.0016,1.35819 0.06533,1.87059 0.141696,1.13866 0.07637,-0.73193 0.07509,-1.84318 -0.0029,-2.46945 z m 34.12416,-10.63379 c 0.99454,-0.41555 1.95734,-1.43729 1.95734,-2.07718 0,-0.0844 -0.54739,-0.24226 -1.21643,-0.35082 -0.66904,-0.10858 -1.81714,-0.6056 -2.55133,-1.1045 -0.75673,-0.5142 -1.83132,-0.90709 -2.48102,-0.90709 -2.306613,0 -1.871694,3.07327 0.61148,4.32098 1.48796,0.74765 2.12529,0.76819 3.67996,0.11861 z m 33.8736001,-13.43641 1.40097,-0.60288 -1.57736,-1.36323 c -0.86756,-0.74978 -1.7541601,-1.36798 -1.9702401,-1.37376 -0.21607,-0.006 -0.8041,-0.42177 -1.30673,-0.9244 -1.62105,-1.62105 -8.24093,-3.90015 -13.29345,-4.57669 -5.78518,-0.77464 -11.35581,-0.0154 -15.4605,2.10725 -1.26793,0.65567 -4.22158,3.59083 -5.05626,5.02459 l -0.58481,1.00455 7.99314,0.019 c 4.74158,0.0113 9.35647,0.21372 11.34454,0.49771 6.47212,0.92452 7.62432,1.00851 12.34722,0.90009 3.51661,-0.0807 5.1290001,-0.26704 6.1634801,-0.7122 z m -39.3245921,-8.99378 c 4.758522,-0.92819 16.519152,-4.0846 19.584642,-5.25627 0.97314,-0.37195 3.23922,-0.9464 5.03573,-1.27655 l 3.26637,-0.60028 -2.06963,-0.97877 c -2.10737,-0.99663 -7.19395,-5.10895 -8.99766,-7.27428 -0.85153,-1.02226 -0.90265,-1.19336 -0.35277,-1.18093 1.65396,0.0374 7.41872,4.21647 9.40055,6.81478 0.54885,0.71958 1.79331,1.66574 2.84576,2.16363 1.93715,0.91642 2.58139,1.03752 3.54744,0.66681 0.489,-0.18765 0.43633,-0.39649 -0.37818,-1.49931 -1.65058,-2.23484 -3.07456,-3.60824 -5.07114,-4.89099 -1.06715,-0.68562 -2.02904,-1.38426 -2.13753,-1.55253 -0.36465,-0.56561 -5.86166,-2.3782 -9.01999,-2.974285 -3.48598,-0.65791 -11.06014,-0.55914 -14.595259,0.190325 -2.762211,0.58561 -8.466667,2.48371 -8.466667,2.81721 0,0.15449 -0.47625,0.47816 -1.058333,0.71926 -0.582084,0.24111 -1.058334,0.54298 -1.058334,0.67083 0,0.18754 1.843409,1.61517 4.057545,3.14238 0.194357,0.13405 0.869043,0.84457 1.499305,1.57893 1.213439,1.41385 1.506174,2.72175 0.609188,2.72175 -0.609579,0 -5.107704,-3.43086 -5.107704,-3.89581 0,-0.16699 -0.714375,-0.79513 -1.5875,-1.39585 -0.873125,-0.60073 -1.5875,-1.00454 -1.5875,-0.89736 0,0.10718 1.028369,1.42195 2.285266,2.92172 2.209135,2.636 4.417512,6.45141 4.417512,7.63212 0,0.7142 -0.794924,0.72698 -3.030739,0.0487 -0.952469,-0.28894 -2.108387,-0.52706 -2.568707,-0.52917 -0.704091,-0.003 -0.767233,0.0802 -0.397777,0.52535 0.241543,0.29105 0.594177,0.52917 0.783631,0.52917 0.189454,0 0.844703,0.2239 1.45611,0.49755 0.611406,0.27365 1.349773,0.57861 1.640815,0.6777 0.859245,0.29254 5.338985,0.21898 7.055556,-0.11585 z m 29.280552,-31.327735 c 0,-0.491818 -0.82364,-1.128889 -1.45949,-1.128889 -0.33706,0 -1.05937,-0.501787 -1.60514,-1.115081 -1.94922,-2.190376 -5.15502,-5.234919 -5.51219,-5.234919 -0.45359,0 -1.65373,1.063745 -1.65373,1.465789 0,0.163953 0.29806,0.2981 0.66236,0.2981 1.04197,0 1.46633,0.82078 1.3684,2.646645 -0.0984,1.835146 0.55303,2.584707 0.93247,1.072885 0.29707,-1.183636 1.0191,-1.132265 2.6639,0.189534 1.68304,1.352529 4.60342,2.498203 4.60342,1.805936 z M 243.04709,188.07352 c -1.18726,-1.11216 -2.59547,-2.7365 -3.12936,-3.60963 -0.53388,-0.87312 -1.34173,-1.98608 -1.79522,-2.47323 -0.45349,-0.48716 -1.78465,-2.86841 -2.95814,-5.29167 -1.17348,-2.42326 -2.2849,-4.64405 -2.4698,-4.9351 -0.18491,-0.29104 -1.00948,-2.03729 -1.83238,-3.88055 -0.82291,-1.84327 -2.09943,-4.21067 -2.83673,-5.2609 -2.10715,-3.00151 -1.5752,-3.128 1.2171,-0.28942 4.10246,4.17044 5.88892,6.24456 6.63047,7.69812 0.38171,0.7482 1.14799,1.88071 1.70286,2.5167 1.09875,1.25936 5.82119,10.76995 7.08424,14.26704 1.21034,3.35114 0.88868,3.60214 -1.61304,1.25864 z m 7.2441,-1.23704 c -0.67271,-0.81985 -1.49102,-1.91277 -1.81846,-2.4287 -0.32745,-0.51593 -0.96364,-1.33543 -1.41375,-1.82111 -0.45012,-0.48569 -1.44811,-2.03509 -2.21775,-3.44312 -0.76965,-1.40804 -1.60915,-2.77136 -1.86556,-3.02961 -0.2564,-0.25825 -1.42598,-2.49359 -2.59906,-4.96743 -1.17308,-2.47384 -2.25599,-4.57727 -2.40649,-4.67428 -0.15049,-0.097 -0.98677,-1.84327 -1.8584,-3.88056 -2.15651,-5.0405 -2.80448,-6.35 -3.14213,-6.35 -0.1581,0 -0.28744,-0.16006 -0.28744,-0.3557 0,-0.60769 -3.97193,-8.46374 -4.27918,-8.46374 -0.30281,0 -1.79845,-2.85941 -1.59963,-3.05823 0.37479,-0.37479 7.95432,8.76707 8.88552,10.71703 0.29743,0.62284 1.10588,1.87274 1.79655,2.77758 0.69068,0.90484 2.07863,3.25275 3.08434,5.21758 1.00571,1.96484 2.08986,3.9693 2.40923,4.45437 0.31936,0.48507 1.231,2.39007 2.02586,4.23333 0.79487,1.84327 1.83365,4.09429 2.30841,5.00227 0.47476,0.90798 1.35809,2.97173 1.96295,4.58611 0.60487,1.61438 1.42566,3.77438 1.82397,4.8 0.39832,1.02561 0.65444,1.93451 0.56917,2.01981 -0.0853,0.0853 -0.70544,-0.51576 -1.37815,-1.3356 z m 53.90515,-1.53155 c -0.21117,-0.21116 -0.0644,-0.8529 0.47474,-2.07576 0.17109,-0.38805 0.64494,-1.57536 1.05304,-2.63847 1.09326,-2.84794 3.30764,-5.69866 7.87435,-10.13722 2.23876,-2.17594 4.35416,-4.39844 4.70091,-4.93889 0.34674,-0.54045 0.97719,-1.36503 1.40095,-1.83241 l 0.7705,-0.84977 0.23964,1.27736 c 0.1318,0.70255 0.18341,2.59307 0.11469,4.20116 -0.099,2.3156 -0.329,3.33931 -1.10589,4.92129 -1.54009,3.1361 -4.19153,6.51664 -6.27891,8.00546 -3.09983,2.21092 -8.6558,4.65548 -9.24402,4.06725 z m 29.02748,-12.1091 c 0,-0.18258 0.15691,-0.42895 0.34872,-0.54749 0.19999,-0.1236 0.25915,0.018 0.13867,0.33195 -0.23452,0.61116 -0.48739,0.72298 -0.48739,0.21554 z m -85.52459,-1.70797 c -2.22753,-2.13888 -10.11348,-15.85121 -12.01418,-20.89063 -1.05533,-2.79805 -2.40714,-5.8326 -2.67517,-6.00524 -0.28029,-0.18054 -3.14995,-6.21102 -3.14995,-6.6195 0,-0.74861 5.03664,5.10973 6.79915,7.9084 0.50476,0.80151 1.28703,1.85575 1.73839,2.34277 0.45135,0.48701 1.2203,1.65687 1.70878,2.59967 1.46581,2.82913 2.61693,4.87842 2.84542,5.06556 0.57974,0.47483 3.84159,8.11548 3.84159,8.99863 0,0.19824 0.30679,0.93283 0.68174,1.63242 0.63256,1.18022 1.64097,5.50828 1.35095,5.79829 -0.0706,0.0706 -0.57759,-0.3031 -1.12672,-0.83037 z m 58.50442,-13.3941 c 0.0247,-4.52437 -0.54635,-6.64643 -2.84911,-10.58789 -1.45559,-2.49138 -2.26201,-3.48357 -3.39425,-4.17616 -0.81678,-0.49963 -1.93071,-1.22341 -2.47537,-1.6084 -0.54465,-0.38498 -1.51384,-0.78494 -2.15374,-0.88878 -1.0123,-0.16427 -1.35061,2.2e-4 -2.60375,1.26595 -0.79216,0.80012 -1.54023,1.76966 -1.66239,2.15453 -0.12217,0.38488 -0.34858,0.69977 -0.50317,0.69977 -0.15459,0 -0.5436,0.68738 -0.86445,1.5275 -0.87203,2.28336 -2.29834,3.47757 -4.39402,3.67894 -1.71475,0.16476 -1.74505,0.15024 -2.12838,-1.02034 -1.92691,-5.88398 -2.04085,-14.56717 -0.3489,-26.58749 0.40965,-2.91041 0.78423,-7.6116 0.83242,-10.44708 0.0482,-2.83548 0.25386,-5.45263 0.45716,-5.8159 0.71441,-1.27658 4.16821,-3.66167 8.0095,-5.53114 3.33171,-1.621465 4.18801,-2.224495 6.05434,-4.263629 1.69164,-1.84828 2.26882,-2.771295 2.60234,-4.161582 0.52825,-2.201957 0.3066,-2.402099 -2.65945,-2.401083 -3.7634,0.0014 -9.87771,1.79832 -11.89634,3.496416 -0.24797,0.208615 -1.56214,1.162586 -2.92033,2.119937 -2.43992,1.719816 -5.02846,4.003356 -9.63154,8.496741 -1.2996,1.26861 -3.52605,3.38075 -4.94767,4.69366 -1.82005,1.68085 -2.48553,2.51184 -2.24928,2.80872 0.5939,0.74637 1.163,4.87744 1.37548,9.98425 0.23305,5.60187 -0.30265,11.1371 -1.2937,13.36792 -0.34477,0.77611 -0.81721,2.00421 -1.04987,2.72911 -0.61789,1.92542 -0.98011,1.91496 -1.56218,-0.0451 -1.06192,-3.57586 -1.88886,-4.1784 -5.75559,-4.19375 -1.39511,-0.006 -2.72133,-0.12426 -2.94715,-0.26382 -0.94203,-0.58221 -1.73278,-3.18233 -1.74048,-5.72296 -0.004,-1.41637 0.14442,-2.55764 0.33326,-2.55764 0.18755,0 1.17188,0.73794 2.1874,1.63987 1.07761,0.95706 1.90474,1.46487 1.9865,1.21958 0.21939,-0.65816 -0.19052,-1.89473 -0.94787,-2.85945 -0.3808,-0.48507 -1.22717,-1.595 -1.88082,-2.4665 -0.65365,-0.87151 -1.85532,-2.03243 -2.67037,-2.57983 -1.33426,-0.8961 -3.86635,-3.97909 -3.53786,-4.30758 0.0727,-0.0726 0.76265,0.0141 1.53331,0.19277 2.63091,0.60997 3.82559,0.43505 4.93458,-0.72248 0.99001,-1.03335 1.00829,-1.11787 0.63078,-2.91767 -0.52398,-2.49805 -2.40702,-7.31139 -3.47734,-8.8886 -0.47841,-0.70498 -1.52219,-2.50284 -2.31951,-3.995255 -0.79731,-1.492406 -1.86738,-3.269094 -2.37793,-3.948191 -1.11388,-1.481621 -2.27959,-3.489403 -3.27714,-5.644444 -0.40416,-0.873125 -1.08762,-2.06375 -1.51879,-2.645834 -0.96706,-1.305549 -2.77358,-6.17511 -3.58181,-9.654991 -0.60272,-2.595058 -0.60216,-2.605839 0.33131,-6.397181 0.85524,-3.473591 0.90457,-4.049659 0.57797,-6.749175 -0.56172,-4.642929 -1.75908,-10.202724 -2.4916,-11.569456 -0.36828,-0.687116 -0.66959,-1.448421 -0.66959,-1.691788 0,-1.079419 -3.67903,-9.752284 -4.50836,-10.627907 -0.24827,-0.262135 -1.08718,-1.635019 -1.86424,-3.050854 -0.77705,-1.415835 -1.78089,-2.947613 -2.23075,-3.403946 -0.44986,-0.456335 -1.21559,-1.464701 -1.70164,-2.240812 -1.07646,-1.718889 -6.02927,-7.268771 -9.32434,-10.448421 l -2.41928,-2.334531 -3.175,0.323067 c -3.75158,0.381737 -7.59732,0.130309 -8.98529,-0.587439 -1.46385,-0.756987 -4.28021,-4.767954 -3.34788,-4.767954 0.10474,0 0.80993,0.316043 1.56709,0.702314 0.75716,0.386274 1.62396,0.607416 1.92622,0.491423 0.87167,-0.33449 0.63887,-0.840959 -0.38656,-0.840959 -1.27581,0 -3.29493,-2.249198 -4.11706,-4.5861988 -0.35391,-1.0060414 -0.55638,-1.9162574 -0.44993,-2.0227081 0.33456,-0.3345568 3.41801,2.4178581 4.68621,4.1830909 1.89861,2.642732 4.36696,3.850594 5.37841,2.631874 0.33085,-0.39865 0.27017,-0.545321 -0.3005,-0.726448 -0.39328,-0.124819 -1.43351,-1.048258 -2.31163,-2.05208 -1.19539,-1.366513 -1.59658,-2.1147578 -1.59658,-2.9777188 0,-1.0718873 0.0826,-1.1525888 1.18004,-1.1525888 2.12166,0 2.46236,-0.7901234 2.78647,-6.46222906 0.32276,-5.64857194 0.74279,-7.93239174 1.57015,-8.53736674 0.56282,-0.4115435 0.38105,-1.2281815 -0.27338,-1.2281815 -0.86316,0 -3.17854,-1.9805191 -4.41615,-3.7774711 -1.51866,-2.205034 -1.51302,-2.153186 -1.18285,-10.862807 0.13395,-3.53363 0.0718,-4.038247 -0.69488,-5.644444 -0.46309,-0.970139 -1.08114,-2.042675 -1.37344,-2.383413 -0.2923,-0.340737 -0.44375,-0.707224 -0.33656,-0.814415 0.45205,-0.452046 2.72769,0.997204 4.96977,3.165012 2.26843,2.19328 3.44465,2.781762 3.94426,1.973376 0.11982,-0.193873 -0.34399,-0.683991 -1.03069,-1.089156 -0.71257,-0.420423 -1.76855,-1.59422 -2.45986,-2.73431 -1.30749,-2.156283 -2.77965,-5.722644 -2.4842,-6.018096 0.30993,-0.309922 2.5981,1.091502 2.79499,1.711826 0.30725,0.968068 2.89826,3.378264 4.53871,4.221981 0.86439,0.444567 1.98169,0.73848 2.55754,0.672772 0.9189,-0.104856 1.04375,-0.275368 1.23142,-1.681755 0.24867,-1.863521 1.95615,-3.550211 3.59396,-3.550211 0.86812,0 0.97421,-0.104091 0.76805,-0.753643 -0.63336,-1.995526 -4.13878,-5.916383 -6.27847,-7.022556 -0.80706,-0.417231 -1.7577,-1.017316 -2.11254,-1.333525 -0.35483,-0.316212 -2.25983,-1.323329 -4.23333,-2.23804 -4.714,-2.184926 -8.09087,-5.155526 -8.87954,-7.811237 -0.66198,-2.229146 -0.67929,-4.490145 -0.0411,-5.362977 0.40609,-0.555364 1.11299,-0.702603 4.19406,-0.87358 4.03076,-0.223679 4.8508,-0.576224 4.82914,-2.076108 -0.01,-0.674751 -0.39495,-1.19089 -1.41582,-1.897084 -0.77134,-0.533576 -1.52936,-0.970139 -1.6845,-0.970139 -0.41974,0 -1.95579,-1.756431 -2.86192,-3.27255 -0.43794,-0.732751 -0.99376,-1.529778 -1.23516,-1.77117 -0.73376,-0.733764 -1.13105,-1.718966 -1.77951,-4.412918 l -0.62042,-2.577472 0.80991,-0.862112 c 0.44544,-0.474161 0.95395,-0.862111 1.13001,-0.862111 0.44739,0 3.43746,-2.487263 3.43746,-2.859419 0,-0.167739 0.46333,-1.061427 1.02962,-1.985976 0.73621,-1.201946 1.15128,-2.519797 1.45652,-4.624398 0.39688,-2.736431 0.3803,-2.987834 -0.23587,-3.575252 -1.13911,-1.085966 -4.52329,-2.081914 -8.56306,-2.520068 l -3.88579,-0.421449 -0.52732,-1.3179 c -0.73257,-1.830879 -5.30467,-6.888146 -7.49417,-8.289416 -0.99874,-0.6392 -2.12854,-1.42987 -2.51065,-1.75704 -1.04564,-0.89531 -5.13804,-2.53184 -8.90261,-3.56012 -1.84326,-0.50348 -3.62603,-1.05633 -3.96171,-1.22856 -1.90942,-0.97968 -14.0899,-2.07457 -23.20218,-2.08561 -8.91571,-0.0108 -31.48042,0.72255 -32.10278,1.04335 -0.9985,0.51469 -0.73666,1.34097 1.04149,3.28655 2.63779,2.88616 2.41825,4.10888 -0.82749,4.60866 -1.74859,0.26924 -2.81492,1.28013 -3.93798,3.73323 -1.06522,2.326727 -1.41668,2.596057 -2.60516,1.996327 -0.49654,-0.25056 -3.04593,-1.180697 -5.6653,-2.066967 -8.193162,-2.77216 -13.991222,-3.41173 -31.044452,-3.4244 -14.86871,-0.011 -27.79507,-0.65286 -32.51541,-1.61441 -0.83476,-0.17005 -1.14727,0.0813 -2.74941,2.21121 -1.54007,2.0474 -7.69827,7.871103 -8.3232,7.871103 -0.11313,0 -0.89697,0.475611 -1.74186,1.056915 -0.8449,0.581307 -1.91587,1.201275 -2.37993,1.37771 -0.46406,0.176438 -1.42011,0.711923 -2.12455,1.189965 -0.70444,0.478046 -3.31332,1.704252 -5.79752,2.724905 -2.4842,1.020653 -4.89533,2.152682 -5.35806,2.51562 -0.4627299,0.362938 -1.0415599,0.659885 -1.2862799,0.659885 -0.56644,0 -8.02407,3.472762 -8.27099,3.851511 -0.1016,0.155857 -0.70543,0.550185 -1.34184,0.876289 -1.96686,1.007855 -5.14042,3.175777 -6.26077,4.276856 -3.3046201,3.247789 -4.6566301,4.267069 -5.3165801,4.008187 -1.1507,-0.451386 -4.84074,-0.336765 -6.96419,0.216323 -1.11739,0.291042 -3.09543,0.532021 -4.39565,0.535506 l -2.36404,0.0063 -1.23472,1.845748 c -0.6791,1.01516 -1.29743,2.004494 -1.37406,2.198521 -0.0766,0.194028 -0.64938,0.923566 -1.27276,1.621198 -0.62339,0.697628 -1.7717,2.205753 -2.5518,3.351389 -0.7801,1.145631 -1.77256,2.400469 -2.20546,2.788524 -0.4329,0.388056 -1.34301,1.542377 -2.02247,2.565157 -0.67946,1.02278 -1.55089,2.080602 -1.93653,2.350714 -0.38564,0.270107 -1.10722,1.088679 -1.60351,1.819038 -0.49629,0.730363 -2.38524,3.165045 -4.19767,5.410401 -5.918655,7.332458 -6.289657,7.812825 -6.777393,8.775291 -0.265233,0.523392 -1.089872,1.68396 -1.832532,2.579042 -1.258718,1.517036 -4.211928,6.877424 -4.211928,7.645079 0,0.188365 -0.22595,0.530006 -0.502111,0.759199 -0.507089,0.420846 -2.9713,5.314311 -4.001064,7.945373 -0.306899,0.78413 -0.836903,1.7902 -1.177787,2.235712 -0.912757,1.192911 -2.316843,5.07304 -3.486258,9.6341211 -0.566841,2.2108619 -1.178082,4.5092973 -1.358312,5.1076331 -0.18023,0.5983358 -0.442172,2.0742628 -0.582094,3.2798385 l -0.254402,2.1919529 2.203744,2.5409948 c 1.212059,1.3975468 2.538203,2.8644568 2.946986,3.2598042 0.408784,0.395344 1.695743,1.8240936 2.859909,3.1749994 1.164167,1.350903 2.592917,2.934865 3.175,3.519908 0.582084,0.585043 2.487084,2.643177 4.233334,4.573626 4.000722,4.422729 7.450268,8.225846 9.925848,10.943212 6.72403,7.380789 17.06165,19.964637 17.06165,20.768931 0,1.151964 -10.8489,-8.88891 -17.36606,-16.072633 -1.11113,-1.22477 -2.88509,-3.179353 -3.942136,-4.34352 -1.057049,-1.164166 -2.816951,-3.188229 -3.910891,-4.497916 -1.093942,-1.309688 -2.127095,-2.38125 -2.295897,-2.38125 -0.168802,0 -0.398329,-0.277813 -0.510059,-0.617362 -0.111731,-0.339548 -1.091252,-1.569861 -2.176714,-2.734027 -1.085463,-1.164167 -2.371404,-2.592917 -2.857648,-3.175 -1.91193,-2.288777 -8.674126,-9.3486111 -8.954476,-9.3486111 -0.426409,0 -0.121066,0.7801081 1.900641,4.8558731 2.317758,4.672605 5.550972,8.66509 14.024249,17.317639 3.677419,3.755224 6.686211,6.98332 6.686211,7.173545 0,0.190225 0.69206,1.245267 1.5379,2.34454 1.74118,2.262875 3.25134,5.816261 3.60505,8.482595 l 0.23892,1.801099 -2.38429,-1.242776 c -1.31137,-0.683528 -2.75391,-1.533518 -3.20567,-1.888867 -0.45175,-0.35535 -1.343796,-0.855119 -1.982328,-1.110601 -1.779199,-0.71187 -3.701588,-2.348396 -4.566662,-3.887586 -0.429644,-0.764449 -0.895159,-1.389906 -1.034477,-1.389906 -0.280169,0 -1.027883,-1.954301 -1.027883,-2.686579 0,-0.334053 0.346989,-0.259899 1.234722,0.263878 2.08099,1.227814 1.393677,0.105491 -1.919979,-3.135158 -4.816128,-4.71002 -14.484188,-13.104717 -14.484188,-12.576503 0,0.715684 1.789006,2.746234 4.477103,5.081584 3.835647,3.332311 8.106157,7.654569 8.754435,8.860522 0.457285,0.85066 0.428242,0.986854 -0.370454,1.737191 -0.476652,0.447791 -0.866639,1.080103 -0.866639,1.405138 0,1.147671 2.059887,3.631442 6.209626,7.487444 4.925354,4.576724 7.892834,8.59179 8.170454,11.054821 0.17048,1.512534 0.14696,1.557662 -0.81193,1.557662 -1.14036,0 -4.703582,-1.904517 -5.392155,-2.882075 -0.256886,-0.364694 -1.105655,-1.413231 -1.886158,-2.330086 -0.780503,-0.916852 -1.919701,-2.265102 -2.531551,-2.99611 -1.467817,-1.753676 -3.170784,-2.802573 -4.324885,-2.6638 -0.878108,0.105589 -0.718824,0.33522 2.647346,3.816515 3.5482,3.669552 5.118548,6.068025 4.907639,7.495692 -0.163706,1.108145 -0.744234,1.090122 -1.388949,-0.04312 -0.623228,-1.095474 -3.607447,-3.329746 -3.967066,-2.970128 -0.575598,0.575599 -0.08754,1.723337 1.278045,3.005526 0.824618,0.774259 1.856493,1.744429 2.293056,2.155937 0.933147,0.879595 0.996223,1.390552 0.248292,2.011282 -0.760667,0.631296 -2.22949,-0.479351 -3.161327,-2.390433 -0.947102,-1.942387 -2.240883,-3.267534 -3.190191,-3.267534 -0.688396,0 -0.795378,0.224434 -0.940362,1.972748 -0.170684,2.058229 -0.573314,2.598533 -1.943429,2.607962 -0.875801,0.006 -1.433925,-1.020462 -3.293396,-6.057127 -1.13271,-3.068122 -1.918529,-4.669998 -3.682782,-7.507277 -2.429147,-3.906566 -3.697797,-5.680307 -4.344211,-6.073792 -0.648846,-0.394963 -0.669112,-0.344763 -0.380097,0.941549 0.382135,1.70076 4.243812,9.430925 5.247002,10.50326 1.575257,1.68383 2.207319,5.376799 1.410953,8.243817 -0.277992,1.000806 -0.573709,1.3234 -1.35669,1.479998 -0.55067,0.110134 -1.348679,0.109379 -1.773354,-0.0018 -0.79208,-0.207045 -1.802214,-1.752557 -1.802214,-2.757311 0,-0.835995 -1.738549,-2.293729 -2.735591,-2.293729 -0.745206,0 -0.837907,0.12259 -0.652202,0.862496 1.021728,4.070886 1.017526,12.11333 -0.0095,18.187504 -0.561246,3.319384 -1.839861,8.192117 -2.221672,8.466666 -0.134915,0.09701 -0.684922,1.222107 -1.222237,2.50021 -1.235549,2.938978 -2.885089,4.973518 -3.40731,4.202568 -0.823509,-1.215736 -1.024548,-1.779983 -1.889392,-5.302882 -1.122895,-4.574056 -1.848052,-9.334972 -2.333322,-15.319258 -0.20523,-2.53081 -0.52497,-5.712721 -0.71053,-7.070915 -0.18557,-1.358195 -0.49622,-7.866945 -0.69034,-14.463889 -0.19412,-6.596945 -0.43336,-12.819683 -0.53164,-13.828307 l -0.1787,-1.833862 2.48422,-2.518964 c 2.024636,-2.052944 2.4393,-2.660026 2.241373,-3.281415 -0.766072,-2.405084 0.225188,-15.659037 1.270695,-16.99023 0.152388,-0.194027 0.722938,-2.2577768 1.267889,-4.5861105 0.808819,-3.4557264 1.00413,-5.1642573 1.063281,-9.3013317 l 0.07246,-5.0679949 1.686515,-1.7869108 c 1.547399,-1.6395141 4.379337,-6.3563711 4.379337,-7.2941991 0,-0.217879 0.32539,-1.063163 0.723088,-1.878412 0.844746,-1.731652 1.402375,-4.20915 2.61349,-11.611496 0.855285,-5.227511 2.195094,-10.853805 2.670387,-11.213822 0.128078,-0.09701 0.86134,-1.607781 1.629471,-3.357262 1.337936,-3.047256 7.312692,-12.517737 7.897215,-12.517737 0.154692,0 0.874689,-0.833438 1.599992,-1.852084 0.725304,-1.018646 2.010636,-2.566458 2.856294,-3.439583 0.845659,-0.873125 3.718561,-3.875772 6.384228,-6.672548 2.665665,-2.79678 5.878545,-6.155648 7.139725,-7.464161 3.33934,-3.464651 5.92572,-6.467443 8.00895,-9.298379 1.00944,-1.371744 2.252,-3.006135 2.76124,-3.631981 1.01702,-1.249891 4.89186,-8.615995 5.71095,-10.856542 0.98455,-2.69321 1.87994,-7.00519 2.10084,-10.11715 l 0.22207,-3.12854 1.79867,-0.90151 c 0.98927,-0.49582 2.35033,-1.32118 3.02458,-1.83412 0.67425,-0.51294 1.70612,-1.19103 2.29305,-1.50687 3.33374,-1.79391 6.3603101,-3.57114 6.5239101,-3.83091 0.17086,-0.27127 6.29859,-3.90451 6.58525,-3.90451 0.0675,0 0.86553,-0.567 1.77341,-1.26 0.90788,-0.69301 2.55248,-1.71522 3.65465,-2.2716 1.10218,-0.55638 2.4871,-1.41813 3.07759,-1.915 0.5905,-0.49687 1.17367,-0.9034 1.29594,-0.9034 0.12227,0 1.2277599,-0.635 2.4566399,-1.41111 1.22889,-0.77611 2.37593,-1.41149 2.54899,-1.41194 0.17307,-4.6e-4 0.87028,-0.47672 1.54938,-1.05837 0.6791,-0.58164 1.79035,-1.31924 2.46945,-1.63911 0.67909,-0.31986 2.07124,-1.1136 3.09365,-1.76385 1.02242,-0.65026 1.94186,-1.18229 2.04322,-1.18229 0.10136,0 0.48842,-0.28333 0.86012,-0.62963 0.37171,-0.34629 1.95208,-1.30964 3.51193,-2.14077 1.55986,-0.83112 3.05475,-1.72978 3.32198,-1.99701 0.26723,-0.26724 1.49898,-1.03289 2.73722,-1.70145 l 2.25133,-1.21558 3.88391,0.18409 c 5.35428,0.25378 8.2309,-0.49799 13.98979,-3.65607 2.39092,-1.31113 4.8652,-2.82684 5.49842,-3.36824 0.6332,-0.5414 1.64156,-1.2379 2.24078,-1.54777 0.59922,-0.30987 2.51904,-1.49571 4.26627,-2.6352 5.59199,-3.64695 10.60535,-5.23233 19.22194,-6.07859 5.77286,-0.56696 9.6689,-0.22048 37.325272,3.3194 5.31018,0.67968 8.01113,0.81413 16.49416,0.82105 l 10.14415,0.008 0.35763,1.08377 c 0.1967,0.59607 0.87058,1.57828 1.49751,2.18269 l 1.13989,1.09893 9.34861,0.16951 c 8.8053,0.15966 17.62719,0.89737 18.98366,1.58747 0.32753,0.16662 1.62738,0.49336 2.88856,0.72608 3.41014,0.62925 8.48651,2.03979 10.4216,2.89577 3.36441,1.48823 7.11294,4.66496 7.60423,6.44426 l 0.35178,1.27402 h 5.37275 5.37275 l 1.28883,1.32292 c 0.70886,0.7276 2.11359,2.27542 3.12163,3.43958 1.00804,1.16417 2.01348,2.27542 2.23433,2.46945 0.22084,0.19402 0.67315,0.77764 1.00514,1.29693 0.56047,0.87667 0.69674,0.91845 1.90632,0.58447 2.00656,-0.55404 7.11079,-0.22076 8.72464,0.56968 0.75158,0.36811 2.44315,1.75235 3.75905,3.07611 3.19281,3.21186 6.24461,4.42302 13.11878,5.2064 1.69118,0.19272 3.78779,0.67518 4.65913,1.07211 2.01776,0.9192 6.88377,5.22236 8.55245,7.56319 0.70486,0.98878 1.49635,1.92496 1.75889,2.08041 0.26254,0.15545 1.20867,1.55054 2.10252,3.10022 0.89384,1.54967 1.83191,3.02431 2.08457,3.27697 0.25266,0.25266 1.36924,2.19131 2.48126,4.30811 1.11203,2.1168 2.39607,4.297467 2.85337,4.845937 0.45735,0.54846 0.83859,1.18346 0.8472,1.411112 0.0236,0.624469 3.05816,5.400244 5.49737,8.65179 1.1889,1.584854 2.97484,3.543064 3.96875,4.351574 0.99392,0.808514 1.80711,1.581443 1.80711,1.717622 0,0.537337 2.08283,1.047186 4.89084,1.197208 3.29787,0.176195 3.365,0.214235 6.06202,3.435456 1.75098,2.091277 2.62044,4.036074 4.06605,9.094896 0.47304,1.655392 1.01702,3.327302 1.20886,3.715357 0.19185,0.388056 0.74803,2.102012 1.23596,3.808797 0.48793,1.706781 1.3631,4.046132 1.94487,5.198554 0.98128,1.943915 1.03,2.21675 0.67447,3.775926 -0.50207,2.201714 -0.51389,8.004044 -0.0197,9.794501 0.74534,2.70172 4.92964,10.054166 5.72184,10.054166 0.34957,0 3.64437,4.981378 4.81711,7.282879 1.10321,2.165127 1.60778,5.335135 1.43252,9.00031 l -0.1555,3.252872 2.21474,2.138221 c 2.33909,2.2582931 3.72011,4.630346 5.04627,8.6676301 0.41371,1.2595154 0.97625,2.76628224 1.25004,3.34836554 0.27379,0.58208336 1.00827,2.80458326 1.63216,4.93888886 1.48565,5.0824935 2.33542,6.8965015 4.62707,9.8777775 1.30178,1.693513 2.46422,2.776192 3.69951,3.445679 l 1.80132,0.976239 -0.80963,2.727928 c -1.63364,5.504501 -2.05743,7.975014 -2.13222,12.42932 -0.0407,2.425348 0.0512,5.441598 0.20411,6.702778 0.15297,1.261181 0.52508,4.277431 0.82691,6.702778 2.27249,18.259619 2.40722,26.718111 0.52533,32.978664 -0.93811,3.120814 -4.85031,9.362204 -5.33051,8.504111 -0.17254,-0.308303 -0.50426,-0.561636 -0.73717,-0.562963 -0.2329,-0.0014 -0.77554,-0.517264 -1.20586,-1.146528 -1.13545,-1.660295 -5.0849,-5.765845 -5.98537,-6.221899 -1.19881,-0.60718 -2.9918,-0.459673 -4.33021,0.356242 l -1.22025,0.743878 2.27859,1.053902 c 2.26547,1.047856 5.27716,3.553683 5.27716,4.390792 0,0.241001 0.21749,0.565136 0.48328,0.720299 1.51616,0.885087 3.25261,7.115153 3.7187,13.34211 0.36763,4.91144 -0.0902,13.1264 -0.87009,15.61126 -0.39356,1.25398 -5.50722,-2.6066 -6.65413,-5.02357 -0.2999,-0.632 -0.77044,-1.33596 -1.0456,-1.56434 -0.49506,-0.41085 -0.90428,-1.36013 -3.0092,-6.98079 -0.59506,-1.58901 -1.47369,-3.46632 -1.95245,-4.17181 -0.47875,-0.705485 -0.9779,-1.627885 -1.10924,-2.049785 -0.41962,-1.347922 -2.23237,-3.336446 -3.8821,-4.258487 l -1.60018,-0.894009 -0.50616,1.211414 c -0.77474,1.854175 -0.61835,3.032989 0.74245,5.597307 0.88869,1.67463 1.30824,2.99137 1.45546,4.5678 0.19727,2.11273 0.1584,2.26296 -0.84303,3.25652 -0.57743,0.57289 -2.2763,1.65965 -3.77526,2.41503 -1.49891,0.75537 -3.1309,1.70787 -3.62659,2.11666 -2.90417,2.39498 -4.36262,3.97187 -5.18467,5.60558 l -0.92607,1.84046 1.49606,1.31326 c 0.82285,0.7223 1.89664,1.46045 2.38619,1.64033 6.13124,2.25281 6.63832,2.6875 8.0778,6.92419 1.91494,5.63623 2.53643,7.29104 3.02813,8.06266 0.58664,0.92058 1.73228,4.7601 2.48896,8.3415 0.75071,3.55305 0.75261,8.64862 0.004,10.44099 -0.64534,1.54486 -2.19315,3.31735 -2.89687,3.31735 -0.25474,0 -0.46316,0.14322 -0.46316,0.31826 0,0.28057 -1.82817,1.09285 -2.45964,1.09285 -0.13071,0 -0.2292,-1.54781 -0.21886,-3.43958 z M -59.498275,51.077383 c -0.828529,-1.240733 -2.083967,-2.833426 -2.789862,-3.53932 -0.705895,-0.705898 -1.42042,-1.526304 -1.587835,-1.823131 -0.167414,-0.296827 -1.098139,-1.376267 -2.068278,-2.398755 -2.013393,-2.122032 -5.489863,-6.409182 -5.328273,-6.570772 0.05937,-0.05936 0.806265,0.208894 1.659773,0.596138 1.594685,0.723519 3.139333,0.938163 3.139333,0.436245 0,-0.360588 -3.713938,-3.83601 -4.614067,-4.317746 -0.583056,-0.312042 -0.6776,-0.24137 -0.6776,0.506519 0,0.478035 -0.200289,1.078935 -0.445087,1.335327 -0.61815,0.647432 -1.318802,2.304782 -1.318802,3.119543 0,0.408923 0.452612,0.913952 1.135632,1.267157 1.367165,0.706988 6.136859,5.249323 6.811083,6.486415 1.015371,1.863045 7.045053,7.703602 7.49182,7.256837 0.05422,-0.05422 -0.579308,-1.113723 -1.407837,-2.354457 z M 336.45452,155.88889 c 0,-0.48507 0.0801,-0.6835 0.17794,-0.44097 0.0979,0.24254 0.0979,0.63941 0,0.88195 -0.0979,0.24253 -0.17794,0.0441 -0.17794,-0.44098 z m -89.40959,-1.22709 c -2.10793,-0.72987 -4.34804,-2.70647 -6.25428,-5.51856 -0.96718,-1.42678 -1.7587,-2.75487 -1.75893,-2.95133 -2.4e-4,-0.19645 -0.41805,-0.83343 -0.92848,-1.41552 -0.51043,-0.58208 -1.22314,-1.71289 -1.58379,-2.51291 -1.40217,-3.11029 -5.45934,-9.3797 -7.42614,-11.47536 -0.91708,-0.97716 -0.92193,-1.00475 -0.17639,-1.00346 0.42164,7e-4 1.24287,0.29468 1.82495,0.65323 1.57806,0.97205 4.99368,4.55029 5.63643,5.90478 0.30969,0.65262 1.03174,1.69971 1.60456,2.32686 0.57281,0.62716 1.36094,1.78151 1.75138,2.56524 1.25871,2.52659 2.71304,5.02821 3.62771,6.24006 0.49072,0.65017 1.39492,2.05524 2.00933,3.1224 0.6144,1.06715 1.60444,2.35091 2.20008,2.8528 1.46273,1.23249 1.21046,1.81318 -0.52643,1.21177 z m 89.76237,-2.65346 c 0,-0.48507 0.0801,-0.68351 0.17794,-0.44097 0.0979,0.24253 0.0979,0.63941 0,0.88194 -0.0979,0.24254 -0.17794,0.0441 -0.17794,-0.44097 z m -87.04528,-5.08752 c -1.61626,-0.70373 -4.83471,-4.02443 -5.75398,-5.93679 -0.44302,-0.92163 -0.92976,-1.67569 -1.08165,-1.67569 -0.27248,0 -3.89424,-7.16386 -3.89424,-7.70285 0,-0.1529 -0.27781,-0.58575 -0.61736,-0.96188 -0.90704,-1.00477 -2.55764,-3.60959 -2.55764,-4.03622 0,-0.20286 -1.05366,-1.39689 -2.34147,-2.65339 -1.2878,-1.2565 -2.17126,-2.28455 -1.96324,-2.28455 2.15827,0 8.74823,6.51694 10.32023,10.20589 0.20093,0.4715 0.71557,1.2094 1.14365,1.63978 0.42808,0.43038 1.25458,1.7063 1.83666,2.83538 0.58208,1.12908 1.57427,2.73411 2.20486,3.56674 0.63059,0.83263 1.14653,1.59728 1.14653,1.69921 0,0.10194 0.79375,1.3501 1.76389,2.77369 0.97014,1.42359 1.76389,2.68819 1.76389,2.81021 0,0.34819 -0.78384,0.23698 -1.97013,-0.27953 z m 87.4242,-0.55693 c 0,-0.67909 0.0726,-0.95691 0.16132,-0.61736 0.0888,0.33955 0.0888,0.89518 0,1.23473 -0.0887,0.33954 -0.16132,0.0617 -0.16132,-0.61737 z m -271.103812,-2.1141 c -1.1159,-0.56518 -2.7034,-1.48461 -3.52778,-2.04319 -0.82438,-0.55857 -1.7947,-1.12362 -2.15626,-1.25566 -0.49782,-0.18179 -0.59384,-0.43168 -0.39559,-1.02953 0.49976,-1.50705 0.59211,-4.18261 0.17881,-5.1804 -0.42459,-1.02504 -2.56088,-2.94198 -4.35729,-3.90988 -1.99499,-1.0749 -4.43787,-3.36725 -4.9776,-4.6709 -0.65168,-1.57403 -0.69824,-4.00664 -0.0972,-5.07851 0.23566,-0.42027 0.82534,-1.07313 1.31041,-1.45082 0.91489,-0.71234 4.17267,-2.30318 5.55403,-2.71214 0.91225,-0.27008 0.85688,0.0157 -0.50337,2.59837 -0.95504,1.81333 -1.08161,4.38715 -0.29033,5.90436 0.28984,0.55575 0.52797,1.26018 0.52916,1.56539 0.008,2.14416 7.11535,10.09121 14.28637,15.97513 1.04308,0.85586 1.04746,0.87404 0.3863,1.60461 -0.9951,1.09957 -3.39595,0.9715 -5.93967,-0.31683 z m 186.564672,-1.76645 c -1.27399,-1.20489 -2.1617,-1.76389 -2.8011,-1.76389 -0.51483,0 -0.9392,-0.19844 -0.94304,-0.44097 -0.004,-0.24254 -0.15764,-1.48209 -0.34176,-2.75457 -0.43343,-2.99537 -3.54583,-9.27786 -6.06294,-12.23823 -0.53605,-0.63044 -1.55223,-2.05919 -2.25819,-3.175 -0.70596,-1.1158 -1.63838,-2.4256 -2.07204,-2.91067 -0.90598,-1.01337 -3.15064,-5.0846 -3.45243,-6.26181 -0.24778,-0.96652 0.27424,-1.04965 0.77034,-0.12267 0.19753,0.36909 1.16781,1.26468 2.15617,1.99021 0.98837,0.72553 2.16207,1.89198 2.60823,2.59212 0.44615,0.70014 1.36658,1.83995 2.04538,2.53292 0.67881,0.69296 1.67658,1.96296 2.21727,2.82222 0.5407,0.85926 1.96514,3.07041 3.16542,4.91367 1.20029,1.84327 2.55246,4.10604 3.00484,5.02838 0.45237,0.92234 1.07447,1.95422 1.38243,2.29305 0.30796,0.33884 1.26927,1.8067 2.13624,3.26191 2.61399,4.3876 2.554,4.22765 1.93809,5.16765 -0.78931,1.20464 -1.40557,1.03979 -3.49291,-0.93432 z m -141.67327,-8.31713 c -11.690682,-0.7615 -19.056252,-1.55784 -22.533832,-2.43629 -1.09132,-0.27567 -3.41298,-0.75621 -5.15923,-1.06787 -4.56511,-0.81473 -4.40943,-0.7362 -4.41169,-2.2254 -0.003,-1.89665 -0.64581,-3.91027 -1.77046,-5.54489 -0.76856,-1.11707 -1.7402,-1.81506 -4.363,-3.13425 -1.85584,-0.93342 -3.74645,-2.04207 -4.20136,-2.46367 -0.45491,-0.42159 -1.21242,-1.07902 -1.68335,-1.46096 -1.48566,-1.20489 -1.8837,-1.94745 -2.25689,-4.21031 l -0.36325,-2.20256 -2.57966,1.22321 c -2.13266,1.01125 -2.77451,1.52324 -3.70416,2.95475 -0.90869,1.39922 -1.29378,1.71365 -2.00645,1.63832 -0.68478,-0.0724 -0.90814,-0.32292 -0.9991,-1.12064 -0.16242,-1.42434 0.60895,-2.69649 1.98346,-3.27115 0.63841,-0.26691 1.0656,-0.63924 0.94932,-0.82739 -0.37833,-0.61214 -1.0759,-0.36361 -2.13227,0.75968 -1.3341,1.41862 -3.11093,2.17721 -4.42407,1.8888 -1.85763,-0.408 -1.28369,-1.60345 2.14756,-4.47314 1.36005,-1.13745 1.47688,-1.33874 0.90451,-1.55838 -0.47829,-0.18354 -0.89634,0.0281 -1.53524,0.777 -1.68199,1.97173 -3.47752,2.69374 -5.12589,2.0612 -0.43135,-0.16552 -0.33917,-0.48297 0.50233,-1.72983 0.56684,-0.8399 1.12595,-2.00375 1.24247,-2.58633 0.18243,-0.91215 -0.29299,-5.06407 -0.77983,-6.810386 -0.10373,-0.372057 0.40755,-0.983706 1.47445,-1.763888 0.89827,-0.656883 6.65683,-6.197819 12.79679,-12.313194 6.13996,-6.115374 11.87794,-11.661506 12.75106,-12.324743 0.87313,-0.663232 2.01874,-1.627843 2.54581,-2.143576 1.08562,-1.062278 6.68106,-4.57532 7.28739,-4.57532 0.21855,0 0.39736,-0.131614 0.39736,-0.292474 0,-0.619209 5.24427,-2.572455 8.55486,-3.186292 2.05511,-0.381049 2.15605,-0.04395 0.23995,0.80143 -0.78966,0.348396 -1.94278,1.133013 -2.5625,1.743586 -0.61972,0.610578 -1.73943,1.569689 -2.48825,2.13136 -0.74881,0.561672 -4.001,3.635255 -7.22708,6.830187 -5.64987,5.595334 -9.53336,8.779073 -11.95101,9.79762 -0.63059,0.265662 -1.14653,0.63954 -1.14653,0.830837 0,2.102912 3.20213,5.176912 7.82815,7.514908 2.00042,1.011015 3.91055,2.183366 4.24472,2.605221 0.59109,0.746171 0.66765,0.753135 2.81794,0.256371 1.21569,-0.28085 2.38901,-0.658922 2.60739,-0.840155 0.88345,-0.733206 13.08319,-4.283456 16.897642,-4.91739 3.03968,-0.505174 3.70416,-0.43627 3.70416,0.384094 0,2.579885 -3.4254,5.169778 -7.941792,6.00468 -2.98461,0.551737 -6.37531,1.660472 -6.85851,2.242682 -0.44427,0.535323 -0.28077,0.587227 3.33502,1.05876 0.77612,0.101209 2.58717,0.340497 4.024592,0.531757 4.55901,0.60661 14.094,0.82364 18.20042,0.41426 2.17606,-0.21694 5.50756,-0.860927 7.58472,-1.466152 3.4574,-1.007389 7.4407,-2.995955 8.30978,-4.148448 0.50949,-0.67564 4.10777,-0.400636 7.62732,0.58293 3.53862,0.988892 9.24773,3.330716 10.8835,4.46431 0.71183,0.49329 2.94558,1.609505 4.9639,2.480475 2.01832,0.87096 3.98358,1.76313 4.36726,1.9826 1.32486,0.75784 4.24972,1.34282 6.7349,1.34699 2.57194,0.004 6.14945,-0.82213 6.14945,-1.42059 0,-0.18651 0.15875,-0.33911 0.35278,-0.33911 1.43699,0 -1.7945,2.15041 -4.80429,3.19703 -1.14118,0.39684 -3.55732,1.02976 -5.36919,1.40649 -1.81188,0.37674 -3.47875,0.80231 -3.70417,0.94573 -0.22542,0.14342 -8.10923,0.36329 -17.51957,0.4886 -15.31238,0.2039 -17.44325,0.30217 -20.28473,0.93548 -5.75376,1.28241 -8.58252,2.60773 -12.73633,5.96715 -2.31006,1.86828 -2.21955,1.99188 -3.14642,-4.29742 -0.31454,-2.13431 -0.85993,-4.53451 -1.21198,-5.33378 -0.5856,-1.3295 -0.78098,-1.47434 -2.29493,-1.70137 -2.66493,-0.39964 -4.828662,0.57536 -7.178822,3.23486 -1.30025,1.47138 -2.44298,2.38848 -3.46014,2.77694 -1.50088,0.57319 -1.51289,0.59129 -1.02216,1.54026 0.27311,0.52814 0.60592,1.7846 0.73957,2.79213 0.15623,1.17772 0.4571,1.94646 0.84255,2.15274 0.32974,0.17647 2.05477,0.22658 3.8334,0.11135 l 3.233872,-0.20952 v 0.87267 c 0,1.48434 -1.453772,2.48454 -3.959532,2.72419 -1.96396,0.18783 -2.20062,0.29145 -2.09498,0.9173 0.22532,1.33483 1.14144,2.88059 2.45013,4.13406 1.29407,1.23946 1.36473,1.25995 5.368272,1.55712 5.1147,0.37964 31.97696,0.39982 35.98334,0.027 1.64923,-0.15346 4.8186,-0.43667 7.04303,-0.62937 4.04971,-0.3508 8.12522,-0.86617 9.85201,-1.24582 0.84662,-0.18614 0.80736,-0.0999 -0.49088,1.07802 -1.78096,1.61593 -5.3919,3.31884 -9.70139,4.57517 -1.84326,0.53736 -3.62625,1.12035 -3.96219,1.29555 -0.74616,0.38913 -5.6792,1.24285 -9.97253,1.72588 -3.3556,0.37753 -17.35251,0.72227 -20.6375,0.50829 z m -12.347222,-7.20509 c 0,-0.19403 -0.2475,-0.35278 -0.54999,-0.35278 -0.30249,0 -0.45187,0.15875 -0.33196,0.35278 0.11992,0.19402 0.36741,0.35277 0.54999,0.35277 0.18258,0 0.33196,-0.15875 0.33196,-0.35277 z M 69.153038,95.860042 c 1.28142,-0.583851 1.20772,-2.232936 -0.18577,-4.15659 -0.59637,-0.823271 -0.99502,-1.586149 -0.88588,-1.695292 0.10914,-0.109138 1.02241,0.06768 2.02948,0.392928 2.08121,0.672154 2.94603,0.303396 1.50414,-0.641364 -0.51824,-0.339563 -1.41596,-1.15691 -1.99494,-1.81633 -1.13799,-1.296109 -2.04389,-1.512742 -2.75298,-0.658339 -0.36342,0.437903 -0.36035,0.808175 0.0162,1.949051 0.37027,1.121897 0.38098,1.863517 0.0527,3.645207 -0.22667,1.230217 -0.41213,2.49627 -0.41213,2.813448 0,0.689455 1.30146,0.772259 2.62924,0.167281 z M 327.24818,125.50366 c -0.9622,-1.57825 -0.97246,-4.30944 -0.0222,-5.86819 0.68643,-1.12584 0.72866,-1.14106 1.85688,-0.66965 0.63497,0.26531 1.94423,0.90278 2.90946,1.41661 0.96524,0.51383 1.96536,0.93424 2.2225,0.93424 0.64813,0 0.20536,1.27288 -0.95232,2.73766 -1.22491,1.54989 -2.17149,2.13905 -3.87424,2.41133 -1.32817,0.21238 -1.46046,0.15292 -2.14016,-0.962 z m 9.92495,-4.0106 c 0.007,-0.58208 0.0863,-0.7775 0.17572,-0.43426 0.0894,0.34324 0.0836,0.81949 -0.0131,1.05834 -0.0966,0.23884 -0.16979,-0.042 -0.16263,-0.62408 z m -0.36583,-4.05694 c 0,-0.48507 0.0801,-0.68351 0.17794,-0.44098 0.0979,0.24254 0.0979,0.63941 0,0.88195 -0.0979,0.24253 -0.17794,0.0441 -0.17794,-0.44097 z M -24.756412,41.67654 c -4.04596,-2.178636 -6.65821,-4.200292 -11.05331,-8.554314 -2.64409,-2.619375 -5.47452,-5.661706 -6.28984,-6.760732 -0.81532,-1.099026 -1.68658,-2.076581 -1.93613,-2.172342 -0.24955,-0.09576 -1.03563,-1.050791 -1.74685,-2.122287 -0.71122,-1.071492 -1.792125,-2.44717 -2.402014,-3.057059 -0.609889,-0.609893 -1.521573,-1.715452 -2.02596,-2.456808 -0.504388,-0.741352 -1.65438,-2.198119 -2.555541,-3.237262 -0.90116,-1.039138 -2.307663,-2.683093 -3.125563,-3.6532318 -0.817899,-0.970139 -3.016826,-3.3359727 -4.886505,-5.2574086 -2.662191,-2.7358869 -3.131949,-3.3556504 -2.166104,-2.8577892 0.678322,0.3496557 2.024335,1.3264268 2.991142,2.1706063 0.966806,0.8441761 1.929739,1.5348691 2.139851,1.5348691 0.814288,0 14.705204,14.2872032 17.084984,17.5723902 0.57409,0.792515 1.37478,1.618068 1.77931,1.834564 0.40453,0.216496 1.02229,0.865212 1.37281,1.441588 0.84224,1.384963 8.0685,9.375436 12.28952,13.589201 2.7626,2.75785 2.89675,3.260326 0.5302,1.986015 z M -33.330972,20.041 c -1.63897,-0.791757 -3.61494,-1.902996 -4.39106,-2.46942 -5.07247,-3.702 -6.63016,-4.941323 -8.91428,-7.092332 -4.048465,-3.8125364 -10.312105,-11.20939726 -10.312105,-12.1777794 0,-0.1984445 -0.379414,-0.740223 -0.843143,-1.2039494 -0.782435,-0.7824364 -3.037412,-4.8169018 -3.037412,-5.4343511 0,-0.271829 4.244767,4.0365644 8.055423,8.17617534 1.099308,1.19420556 3.189368,3.46297586 4.644577,5.04170936 4.04611,4.3895714 8.20133,8.5606572 9.5472,9.5836452 0.66688,0.5069 1.76815,1.451653 2.44724,2.099451 0.6791,0.647799 2.50473,2.016094 4.05695,3.040656 3.37738,2.229276 2.8432,2.41518 -1.25339,0.436195 z m 4.85839,-5.990928 c -0.89718,-0.594272 -1.7187,-1.35605 -1.82559,-1.692843 -0.22706,-0.715395 -3.20037,-3.8497268 -4.43128,-4.6712683 l -0.84719,-0.5654323 0.81225,-0.4347033 c 1.36015,-0.7279323 2.31343,-0.1664829 5.95251,3.5058139 1.99729,2.015518 3.78575,3.528804 4.17204,3.530134 0.5392,0.0018 0.4618,0.144283 -0.38219,0.703231 -1.38064,0.914368 -1.52828,0.898327 -3.45055,-0.374932 z"
       id="path21"
       inkscape:connector-curvature="0" />
  </g>
</svg>
